SplineFontDB: 3.0
FontName: Sahel-Black
FullName: Sahel Black
FamilyName: Sahel Black
Weight: Black
Copyright: Copyright (c) 2016 by Saber Rastikerdar. All Rights Reserved.\nBased on DejaVu font.\nNon-Arabic(Latin) glyphs and data are imported from Open Sans font under the Apache License, Version 2.0.
Version: 2.0.1
ItalicAngle: 0
UnderlinePosition: -500
UnderlineWidth: 100
Ascent: 1638
Descent: 410
InvalidEm: 0
LayerCount: 2
Layer: 0 0 "Back" 1
Layer: 1 0 "Fore" 0
PreferredKerning: 4
XUID: [1021 502 1027637223 355691]
UniqueID: 4254074
UseUniqueID: 1
FSType: 0
OS2Version: 1
OS2_WeightWidthSlopeOnly: 0
OS2_UseTypoMetrics: 1
CreationTime: 1431850356
ModificationTime: 1565704395
PfmFamily: 33
TTFWeight: 900
TTFWidth: 5
LineGap: 0
VLineGap: 0
OS2TypoAscent: 2200
OS2TypoAOffset: 0
OS2TypoDescent: -1000
OS2TypoDOffset: 0
OS2TypoLinegap: 0
OS2WinAscent: 2200
OS2WinAOffset: 0
OS2WinDescent: 1000
OS2WinDOffset: 0
HheadAscent: 2200
HheadAOffset: 0
HheadDescent: -1000
HheadDOffset: 0
OS2CapHeight: 1638
OS2XHeight: 1082
OS2Vendor: '    '
Lookup: 4 1 1 "'ccmp' Glyph Composition/Decomposition in Arabic lookup 0" { "'ccmp' Glyph Composition/Decomposition in Arabic lookup 0 subtable"  } ['ccmp' ('DFLT' <'dflt' > 'arab' <'FAR ' 'KUR ' 'SND ' 'URD ' 'dflt' > ) ]
Lookup: 1 9 0 "'fina' Terminal Forms in Arabic lookup 1" { "'fina' Terminal Forms in Arabic lookup 1 subtable"  } ['fina' ('DFLT' <'dflt' > 'arab' <'FAR ' 'KUR ' 'SND ' 'URD ' 'dflt' > ) ]
Lookup: 1 9 0 "'medi' Medial Forms in Arabic lookup 2" { "'medi' Medial Forms in Arabic lookup 2 subtable"  } ['medi' ('DFLT' <'dflt' > 'arab' <'FAR ' 'KUR ' 'SND ' 'URD ' 'dflt' > ) ]
Lookup: 1 9 0 "'init' Initial Forms in Arabic lookup 3" { "'init' Initial Forms in Arabic lookup 3 subtable"  } ['init' ('DFLT' <'dflt' > 'arab' <'FAR ' 'KUR ' 'SND ' 'URD ' 'dflt' > ) ]

StartChar: commaarabic
Encoding: 1548 1548 2
Width: 708
GlyphClass: 2
Flags: HW
LayerCount: 2
Fore
SplineSet
354 -10 m 0
 203 -10 128 68 128 223 c 0
 128 444 242 622 470 759 c 0
 582 829 640 723 539 642 c 0
 454 574 403 489 377 404 c 1
 493 398 559 319 559 206 c 0
 559 74 489 -10 354 -10 c 0
EndSplineSet
EndChar

StartChar: uni0615
Encoding: 1557 1557 3
Width: 0
GlyphClass: 4
Flags: HW
AnchorPoint: "Anchor-10" 770 1883 mark 0
AnchorPoint: "Anchor-9" 770 1883 mark 0
AnchorPoint: "Anchor-1" 770 2976 basemark 0
AnchorPoint: "Anchor-1" 770 1883 mark 0
LayerCount: 2
Fore
SplineSet
995 2556 m 0
 1132 2556 1226 2471 1226 2322 c 0
 1226 2080 1039 1995 727 1995 c 2
 388 1995 l 1
 283 2200 l 1
 452 2200 l 1
 452 2871 l 1
 658 2871 l 1
 658 2352 l 1
 778 2488 890 2556 995 2556 c 0
1026 2299 m 0
 1026 2322 1014 2333 990 2333 c 0
 946 2333 881 2289 793 2200 c 1
 815 2200 l 2
 934 2200 1026 2227 1026 2299 c 0
EndSplineSet
EndChar

StartChar: uni061B
Encoding: 1563 1563 4
Width: 708
GlyphClass: 2
Flags: HW
LayerCount: 2
Fore
SplineSet
354 580 m 0
 203 580 128 658 128 813 c 0
 128 1034 242 1212 470 1349 c 0
 582 1419 640 1313 539 1232 c 0
 454 1164 403 1079 377 994 c 1
 493 988 559 909 559 796 c 0
 559 664 489 580 354 580 c 0
354 0 m 0
 226 0 120 106 120 234 c 0
 120 362 226 467 354 467 c 0
 482 467 588 362 588 234 c 0
 588 106 482 0 354 0 c 0
EndSplineSet
EndChar

StartChar: uni061F
Encoding: 1567 1567 5
Width: 1049
GlyphClass: 2
Flags: HW
LayerCount: 2
Fore
SplineSet
624 0 m 0
 496 0 390 106 390 234 c 0
 390 362 496 467 624 467 c 0
 752 467 857 362 857 234 c 0
 857 106 752 0 624 0 c 0
582 1209 m 0
 493 1209 427 1169 427 1084 c 0
 427 1043 465 995 541 938 c 2
 594 899 l 2
 704 817 758 731 758 641 c 2
 758 626 l 2
 758 608 746 599 721 599 c 2
 526 599 l 2
 496 599 480 608 480 625 c 2
 480 635 l 2
 480 662 438 702 354 754 c 2
 250 819 l 2
 122 898 60 998 60 1124 c 0
 60 1366 248 1545 540 1545 c 0
 789 1544 976 1378 976 1109 c 0
 976 1064 974 1028 969 1001 c 1
 783 1000 l 1
 778 1136 720 1209 582 1209 c 0
EndSplineSet
EndChar

StartChar: uni0621
Encoding: 1569 1569 6
Width: 891
GlyphClass: 2
Flags: HW
AnchorPoint: "Anchor-7" 475 -43 basechar 0
AnchorPoint: "Anchor-10" 437 1235 basechar 0
LayerCount: 2
Fore
SplineSet
814 469 m 2
 796 210 l 1
 565 194 327 129 84 14 c 1
 85 371 l 1
 213 408 l 1
 163 466 138 533 138 611 c 0
 138 829 280 984 482 984 c 0
 573 984 708 941 755 893 c 1
 702 673 l 1
 650 699 595 712 539 712 c 0
 430 712 366 677 347 607 c 1
 347 561 433 518 489 490 c 1
 516 492 560 501 620 516 c 2
 724 542 l 2
 797 562 820 556 814 469 c 2
EndSplineSet
EndChar

StartChar: uni0627
Encoding: 1575 1575 12
Width: 539
GlyphClass: 2
Flags: HW
AnchorPoint: "Anchor-10" 258 1625 basechar 0
AnchorPoint: "Anchor-7" 260 -201 basechar 0
LayerCount: 2
Fore
SplineSet
47 1368 m 1
 372 1570 l 2
 404 1591 422 1573 426 1523 c 0
 446 1233 456 955 456 685 c 0
 456 340 433 135 387 71 c 0
 337 2 260 -14 144 -14 c 1
 139 356 124 948 47 1368 c 1
EndSplineSet
Substitution2: "'fina' Terminal Forms in Arabic lookup 1 subtable" uniFE8E
EndChar

StartChar: uni062D
Encoding: 1581 1581 18
Width: 1362
GlyphClass: 2
Flags: HW
AnchorPoint: "Anchor-7" 637 -850 basechar 0
AnchorPoint: "Anchor-10" 681 1364 basechar 0
LayerCount: 2
Fore
SplineSet
791 -302 m 0
 956 -302 1098 -291 1217 -268 c 0
 1296 -255 1255 -334 1225 -387 c 2
 1107 -593 l 2
 1072 -654 1026 -686 967 -691 c 0
 912 -695 862 -697 817 -697 c 0
 354 -696 122 -533 122 -90 c 0
 122 282 333 540 664 649 c 1
 549 675 469 689 423 689 c 0
 359 689 292 648 223 565 c 1
 81 641 l 1
 136 840 232 1057 433 1057 c 0
 488 1057 684 1007 1018 908 c 0
 1085 888 1161 878 1248 878 c 0
 1279 878 1295 877 1291 858 c 2
 1207 495 l 1
 838 414 350 248 350 -64 c 0
 350 -225 499 -302 791 -302 c 0
EndSplineSet
Substitution2: "'fina' Terminal Forms in Arabic lookup 1 subtable" uniFEA2
Substitution2: "'medi' Medial Forms in Arabic lookup 2 subtable" uniFEA4
Substitution2: "'init' Initial Forms in Arabic lookup 3 subtable" uniFEA3
EndChar

StartChar: uni062F
Encoding: 1583 1583 20
Width: 1048
GlyphClass: 2
Flags: HW
AnchorPoint: "Anchor-10" 459 1454 basechar 0
AnchorPoint: "Anchor-7" 432 -196 basechar 0
LayerCount: 2
Fore
SplineSet
263 616 m 1
 262 607 262 590 262 568 c 0
 262 520 330 496 465 496 c 0
 650 496 737 539 737 564 c 0
 737 652 456 837 333 909 c 1
 460 1230 l 2
 472 1260 492 1263 517 1244 c 0
 790 1035 977 836 977 511 c 0
 977 184 798 2 464 2 c 0
 200 2 65 126 65 377 c 0
 65 456 80 541 110 632 c 1
 263 616 l 1
EndSplineSet
PairPos2: "'kern' Horizontal Kerning lookup 0 subtable 4" uniFB90 dx=-120 dy=0 dh=-120 dv=0 dx=0 dy=0 dh=0 dv=0
PairPos2: "'kern' Horizontal Kerning lookup 0 subtable 4" uni06A9 dx=-120 dy=0 dh=-120 dv=0 dx=0 dy=0 dh=0 dv=0
PairPos2: "'kern' Horizontal Kerning lookup 0 subtable 4" uniFB94 dx=-120 dy=0 dh=-120 dv=0 dx=0 dy=0 dh=0 dv=0
PairPos2: "'kern' Horizontal Kerning lookup 0 subtable 4" uni06AF dx=-120 dy=0 dh=-120 dv=0 dx=0 dy=0 dh=0 dv=0
Substitution2: "'fina' Terminal Forms in Arabic lookup 1 subtable" uniFEAA
EndChar

StartChar: uni0631
Encoding: 1585 1585 22
Width: 803
GlyphClass: 2
Flags: HW
AnchorPoint: "Anchor-7" 371 -706 basechar 0
AnchorPoint: "Anchor-10" 507 1115 basechar 0
LayerCount: 2
Fore
SplineSet
508 782 m 1
 650 624 721 415 721 156 c 0
 721 -87 632 -405 533 -483 c 0
 502 -508 446 -520 365 -520 c 2
 121 -520 l 2
 -108 -520 -88 -449 47 -362 c 0
 323 -184 497 62 497 124 c 0
 497 160 446 235 273 436 c 1
 508 782 l 1
EndSplineSet
PairPos2: "'kern' Horizontal Kerning lookup 0 subtable 3" uni06C0 dx=-128 dy=0 dh=-128 dv=0 dx=0 dy=0 dh=0 dv=0
PairPos2: "'kern' Horizontal Kerning lookup 0 subtable 3" uni0621 dx=-128 dy=0 dh=-128 dv=0 dx=0 dy=0 dh=0 dv=0
PairPos2: "'kern' Horizontal Kerning lookup 0 subtable 2" uni0648 dx=-43 dy=0 dh=-43 dv=0 dx=0 dy=0 dh=0 dv=0
PairPos2: "'kern' Horizontal Kerning lookup 0 subtable 0" uniFEF3 dx=20 dy=0 dh=20 dv=0 dx=0 dy=0 dh=0 dv=0
PairPos2: "'kern' Horizontal Kerning lookup 0 subtable 0" uniFB58 dx=20 dy=0 dh=20 dv=0 dx=0 dy=0 dh=0 dv=0
PairPos2: "'kern' Horizontal Kerning lookup 0 subtable 0" uniFBFE dx=20 dy=0 dh=20 dv=0 dx=0 dy=0 dh=0 dv=0
PairPos2: "'kern' Horizontal Kerning lookup 0 subtable 0" uni0632 dx=-43 dy=0 dh=-43 dv=0 dx=0 dy=0 dh=0 dv=0
PairPos2: "'kern' Horizontal Kerning lookup 0 subtable 0" uni0631 dx=-43 dy=0 dh=-43 dv=0 dx=0 dy=0 dh=0 dv=0
PairPos2: "'kern' Horizontal Kerning lookup 0 subtable 0" uni06CC dx=-43 dy=0 dh=-43 dv=0 dx=0 dy=0 dh=0 dv=0
PairPos2: "'kern' Horizontal Kerning lookup 0 subtable 0" uniFEEB dx=-128 dy=0 dh=-128 dv=0 dx=0 dy=0 dh=0 dv=0
PairPos2: "'kern' Horizontal Kerning lookup 0 subtable 0" uniFB7C dx=-115 dy=0 dh=-115 dv=0 dx=0 dy=0 dh=0 dv=0
PairPos2: "'kern' Horizontal Kerning lookup 0 subtable 0" uniFEDF dx=-128 dy=0 dh=-128 dv=0 dx=0 dy=0 dh=0 dv=0
PairPos2: "'kern' Horizontal Kerning lookup 0 subtable 0" uniFB90 dx=-213 dy=0 dh=-213 dv=0 dx=0 dy=0 dh=0 dv=0
PairPos2: "'kern' Horizontal Kerning lookup 0 subtable 0" uni06A9 dx=-213 dy=0 dh=-213 dv=0 dx=0 dy=0 dh=0 dv=0
PairPos2: "'kern' Horizontal Kerning lookup 0 subtable 0" uni0649 dx=-43 dy=0 dh=-43 dv=0 dx=0 dy=0 dh=0 dv=0
PairPos2: "'kern' Horizontal Kerning lookup 0 subtable 0" uni0647 dx=-128 dy=0 dh=-128 dv=0 dx=0 dy=0 dh=0 dv=0
PairPos2: "'kern' Horizontal Kerning lookup 0 subtable 0" uniFEE7 dx=-128 dy=0 dh=-128 dv=0 dx=0 dy=0 dh=0 dv=0
PairPos2: "'kern' Horizontal Kerning lookup 0 subtable 0" uniFEE3 dx=-128 dy=0 dh=-128 dv=0 dx=0 dy=0 dh=0 dv=0
PairPos2: "'kern' Horizontal Kerning lookup 0 subtable 0" uni0645 dx=-128 dy=0 dh=-128 dv=0 dx=0 dy=0 dh=0 dv=0
PairPos2: "'kern' Horizontal Kerning lookup 0 subtable 0" uni0644 dx=-43 dy=0 dh=-43 dv=0 dx=0 dy=0 dh=0 dv=0
PairPos2: "'kern' Horizontal Kerning lookup 0 subtable 0" uniFEDB dx=-213 dy=0 dh=-213 dv=0 dx=0 dy=0 dh=0 dv=0
PairPos2: "'kern' Horizontal Kerning lookup 0 subtable 0" uniFED7 dx=-128 dy=0 dh=-128 dv=0 dx=0 dy=0 dh=0 dv=0
PairPos2: "'kern' Horizontal Kerning lookup 0 subtable 0" uni0642 dx=-43 dy=0 dh=-43 dv=0 dx=0 dy=0 dh=0 dv=0
PairPos2: "'kern' Horizontal Kerning lookup 0 subtable 0" uniFED3 dx=-128 dy=0 dh=-128 dv=0 dx=0 dy=0 dh=0 dv=0
PairPos2: "'kern' Horizontal Kerning lookup 0 subtable 0" uni0641 dx=-128 dy=0 dh=-128 dv=0 dx=0 dy=0 dh=0 dv=0
PairPos2: "'kern' Horizontal Kerning lookup 0 subtable 0" uniFECF dx=-128 dy=0 dh=-128 dv=0 dx=0 dy=0 dh=0 dv=0
PairPos2: "'kern' Horizontal Kerning lookup 0 subtable 0" uniFECB dx=-128 dy=0 dh=-128 dv=0 dx=0 dy=0 dh=0 dv=0
PairPos2: "'kern' Horizontal Kerning lookup 0 subtable 0" uniFEC7 dx=-128 dy=0 dh=-128 dv=0 dx=0 dy=0 dh=0 dv=0
PairPos2: "'kern' Horizontal Kerning lookup 0 subtable 0" uni0638 dx=-128 dy=0 dh=-128 dv=0 dx=0 dy=0 dh=0 dv=0
PairPos2: "'kern' Horizontal Kerning lookup 0 subtable 0" uniFEC3 dx=-128 dy=0 dh=-128 dv=0 dx=0 dy=0 dh=0 dv=0
PairPos2: "'kern' Horizontal Kerning lookup 0 subtable 0" uni0637 dx=-128 dy=0 dh=-128 dv=0 dx=0 dy=0 dh=0 dv=0
PairPos2: "'kern' Horizontal Kerning lookup 0 subtable 0" uniFEBF dx=-128 dy=0 dh=-128 dv=0 dx=0 dy=0 dh=0 dv=0
PairPos2: "'kern' Horizontal Kerning lookup 0 subtable 0" uni0636 dx=-128 dy=0 dh=-128 dv=0 dx=0 dy=0 dh=0 dv=0
PairPos2: "'kern' Horizontal Kerning lookup 0 subtable 0" uniFEBB dx=-128 dy=0 dh=-128 dv=0 dx=0 dy=0 dh=0 dv=0
PairPos2: "'kern' Horizontal Kerning lookup 0 subtable 0" uni0635 dx=-128 dy=0 dh=-128 dv=0 dx=0 dy=0 dh=0 dv=0
PairPos2: "'kern' Horizontal Kerning lookup 0 subtable 0" uniFEB7 dx=-128 dy=0 dh=-128 dv=0 dx=0 dy=0 dh=0 dv=0
PairPos2: "'kern' Horizontal Kerning lookup 0 subtable 0" uni0634 dx=-128 dy=0 dh=-128 dv=0 dx=0 dy=0 dh=0 dv=0
PairPos2: "'kern' Horizontal Kerning lookup 0 subtable 0" uniFEB3 dx=-128 dy=0 dh=-128 dv=0 dx=0 dy=0 dh=0 dv=0
PairPos2: "'kern' Horizontal Kerning lookup 0 subtable 0" uni0633 dx=-128 dy=0 dh=-128 dv=0 dx=0 dy=0 dh=0 dv=0
PairPos2: "'kern' Horizontal Kerning lookup 0 subtable 0" uni0630 dx=-128 dy=0 dh=-128 dv=0 dx=0 dy=0 dh=0 dv=0
PairPos2: "'kern' Horizontal Kerning lookup 0 subtable 0" uni062F dx=-128 dy=0 dh=-128 dv=0 dx=0 dy=0 dh=0 dv=0
PairPos2: "'kern' Horizontal Kerning lookup 0 subtable 0" uniFEA7 dx=-128 dy=0 dh=-128 dv=0 dx=0 dy=0 dh=0 dv=0
PairPos2: "'kern' Horizontal Kerning lookup 0 subtable 0" uniFEA3 dx=-128 dy=0 dh=-128 dv=0 dx=0 dy=0 dh=0 dv=0
PairPos2: "'kern' Horizontal Kerning lookup 0 subtable 0" uniFE9F dx=-128 dy=0 dh=-128 dv=0 dx=0 dy=0 dh=0 dv=0
PairPos2: "'kern' Horizontal Kerning lookup 0 subtable 0" uniFE9B dx=-128 dy=0 dh=-128 dv=0 dx=0 dy=0 dh=0 dv=0
PairPos2: "'kern' Horizontal Kerning lookup 0 subtable 0" uni062B dx=-128 dy=0 dh=-128 dv=0 dx=0 dy=0 dh=0 dv=0
PairPos2: "'kern' Horizontal Kerning lookup 0 subtable 0" uniFE97 dx=-128 dy=0 dh=-128 dv=0 dx=0 dy=0 dh=0 dv=0
PairPos2: "'kern' Horizontal Kerning lookup 0 subtable 0" uni062A dx=-128 dy=0 dh=-128 dv=0 dx=0 dy=0 dh=0 dv=0
PairPos2: "'kern' Horizontal Kerning lookup 0 subtable 0" uni0629 dx=-128 dy=0 dh=-128 dv=0 dx=0 dy=0 dh=0 dv=0
PairPos2: "'kern' Horizontal Kerning lookup 0 subtable 0" uniFE91 dx=-53 dy=0 dh=-53 dv=0 dx=0 dy=0 dh=0 dv=0
PairPos2: "'kern' Horizontal Kerning lookup 0 subtable 0" uni0628 dx=-128 dy=0 dh=-128 dv=0 dx=0 dy=0 dh=0 dv=0
PairPos2: "'kern' Horizontal Kerning lookup 0 subtable 0" uni0627 dx=-150 dy=0 dh=-150 dv=0 dx=0 dy=0 dh=0 dv=0
PairPos2: "'kern' Horizontal Kerning lookup 0 subtable 0" uni0622 dx=-150 dy=0 dh=-150 dv=0 dx=0 dy=0 dh=0 dv=0
PairPos2: "'kern' Horizontal Kerning lookup 0 subtable 0" uniFB94 dx=-235 dy=0 dh=-235 dv=0 dx=0 dy=0 dh=0 dv=0
PairPos2: "'kern' Horizontal Kerning lookup 0 subtable 0" uni06AF dx=-235 dy=0 dh=-235 dv=0 dx=0 dy=0 dh=0 dv=0
PairPos2: "'kern' Horizontal Kerning lookup 0 subtable 0" uniFB56 dx=-128 dy=0 dh=-128 dv=0 dx=0 dy=0 dh=0 dv=0
PairPos2: "'kern' Horizontal Kerning lookup 0 subtable 0" uni067E dx=-128 dy=0 dh=-128 dv=0 dx=0 dy=0 dh=0 dv=0
Substitution2: "'fina' Terminal Forms in Arabic lookup 1 subtable" uniFEAE
EndChar

StartChar: uni0633
Encoding: 1587 1587 24
Width: 2389
GlyphClass: 2
Flags: HW
AnchorPoint: "Anchor-7" 630 -811 basechar 0
AnchorPoint: "Anchor-10" 1621 1281 basechar 0
LayerCount: 2
Fore
SplineSet
1930 495 m 0
 2003 495 2049 518 2049 580 c 0
 2049 630 2029 667 1960 791 c 1
 2139 1013 l 2
 2156 1034 2173 1035 2189 1012 c 0
 2273 882 2314 743 2314 594 c 0
 2314 331 2181 0 1911 -0 c 0
 1829 0 1755 57 1684 171 c 1
 1614 59 1538 0 1455 0 c 0
 1421 0 1381 11 1337 34 c 1
 1308 -344 1114 -566 719 -567 c 0
 313 -567 77 -359 77 31 c 0
 77 203 120 376 204 549 c 1
 381 494 l 1
 347 379 329 283 329 208 c 0
 329 -22 484 -96 725 -96 c 0
 979 -96 1109 24 1109 95 c 0
 1109 137 1019 274 932 402 c 1
 1144 698 l 2
 1159 718 1173 711 1189 691 c 0
 1211 660 1228 637 1248 610 c 0
 1302 535 1371 497 1457 497 c 0
 1538 497 1584 540 1597 627 c 2
 1616 759 l 1
 1765 759 l 1
 1790 633 l 2
 1808 541 1855 495 1930 495 c 0
EndSplineSet
Substitution2: "'fina' Terminal Forms in Arabic lookup 1 subtable" uniFEB2
Substitution2: "'medi' Medial Forms in Arabic lookup 2 subtable" uniFEB4
Substitution2: "'init' Initial Forms in Arabic lookup 3 subtable" uniFEB3
EndChar

StartChar: uni0635
Encoding: 1589 1589 26
Width: 2616
GlyphClass: 2
Flags: HW
AnchorPoint: "Anchor-7" 634 -772 basechar 0
AnchorPoint: "Anchor-10" 2047 1407 basechar 0
LayerCount: 2
Fore
SplineSet
2297 572 m 0
 2297 602 2282 691 2092 691 c 0
 1943 691 1795 598 1671 497 c 1
 1913 497 l 2
 2212 497 2297 528 2297 572 c 0
2545 703 m 0
 2545 317 2256 0 1790 0 c 2
 1588 0 l 2
 1492 0 1407 11 1337 34 c 1
 1307 -354 1111 -566 699 -567 c 0
 309 -567 77 -349 77 31 c 0
 77 203 120 376 204 549 c 1
 381 494 l 1
 347 379 329 283 329 208 c 0
 329 -15 481 -96 705 -96 c 0
 1044 -96 1110 61 1110 99 c 0
 1110 132 1017 277 932 402 c 1
 1140 692 l 2
 1154 713 1176 710 1188 695 c 0
 1267 593 1343 499 1441 499 c 1
 1652 763 1912 1051 2211 1051 c 0
 2414 1051 2545 917 2545 703 c 0
EndSplineSet
Substitution2: "'fina' Terminal Forms in Arabic lookup 1 subtable" uniFEBA
Substitution2: "'medi' Medial Forms in Arabic lookup 2 subtable" uniFEBC
Substitution2: "'init' Initial Forms in Arabic lookup 3 subtable" uniFEBB
EndChar

StartChar: uni0637
Encoding: 1591 1591 28
Width: 1594
GlyphClass: 2
Flags: HW
AnchorPoint: "Anchor-10" 510 1658 basechar 0
AnchorPoint: "Anchor-7" 732 -191 basechar 0
LayerCount: 2
Fore
SplineSet
1524 696 m 0
 1524 257 1171 0 769 0 c 2
 299 0 l 1
 56 361 l 2
 -46 512 51 495 94 495 c 2
 408 495 l 1
 408 496 408 497 408 498 c 1
 397 865 373 1157 338 1372 c 1
 651 1575 l 2
 682 1596 704 1590 704 1539 c 2
 704 811 l 1
 885 969 1047 1049 1191 1049 c 0
 1394 1049 1524 912 1524 696 c 0
1276 571 m 0
 1276 600 1261 689 1071 689 c 0
 926 689 771 596 650 494 c 1
 897 494 l 2
 1214 494 1276 533 1276 571 c 0
EndSplineSet
Substitution2: "'fina' Terminal Forms in Arabic lookup 1 subtable" uniFEC2
Substitution2: "'medi' Medial Forms in Arabic lookup 2 subtable" uniFEC4
Substitution2: "'init' Initial Forms in Arabic lookup 3 subtable" uniFEC3
EndChar

StartChar: uni0639
Encoding: 1593 1593 30
Width: 1283
GlyphClass: 2
Flags: HW
AnchorPoint: "Anchor-7" 603 -830 basechar 0
AnchorPoint: "Anchor-10" 659 1463 basechar 0
LayerCount: 2
Fore
SplineSet
751 -302 m 0
 909 -302 1048 -291 1167 -268 c 0
 1247 -255 1204 -334 1175 -387 c 2
 1057 -593 l 2
 1023 -652 980 -677 924 -688 c 0
 880 -697 829 -697 767 -697 c 0
 314 -696 86 -525 86 -91 c 0
 86 155 191 349 402 490 c 1
 322 574 282 668 282 772 c 0
 282 1027 470 1222 704 1222 c 0
 846 1222 961 1171 1053 1068 c 1
 1032 991 1013 926 991 854 c 1
 901 892 828 911 772 911 c 0
 592 911 490 824 490 774 c 0
 490 735 537 686 687 614 c 1
 879 653 1018 674 1102 675 c 0
 1157 675 1170 655 1160 602 c 2
 1093 272 l 1
 737 272 315 150 315 -78 c 0
 315 -229 462 -302 751 -302 c 0
EndSplineSet
Substitution2: "'fina' Terminal Forms in Arabic lookup 1 subtable" uniFECA
Substitution2: "'medi' Medial Forms in Arabic lookup 2 subtable" uniFECC
Substitution2: "'init' Initial Forms in Arabic lookup 3 subtable" uniFECB
EndChar

StartChar: uni0640
Encoding: 1600 1600 32
Width: 245
GlyphClass: 2
Flags: HW
AnchorPoint: "Anchor-10" 130 1097 basechar 0
AnchorPoint: "Anchor-7" 130 -194 basechar 0
LayerCount: 2
Fore
SplineSet
-60 171 m 2
 -60 303 l 2
 -60 431 -42 495 -5 495 c 2
 250 495 l 2
 267 495 275 431 275 303 c 2
 275 171 l 2
 275 57 267 0 250 0 c 2
 -5 0 l 2
 -42 0 -60 57 -60 171 c 2
EndSplineSet
EndChar

StartChar: uni0643
Encoding: 1603 1603 35
Width: 1934
GlyphClass: 2
Flags: HW
AnchorPoint: "Anchor-10" 932 1581 basechar 0
AnchorPoint: "Anchor-7" 759 -199 basechar 0
LayerCount: 2
Fore
SplineSet
1812 698 m 2
 1812 472 1754 315 1647 208 c 0
 1484 46 1208 0 852 0 c 0
 397 0 78 120 78 539 c 0
 78 694 116 846 191 994 c 1
 346 938 l 1
 326 866 316 805 316 756 c 0
 316 619 418 491 882 491 c 0
 1252 491 1403 522 1464 576 c 0
 1497 605 1503 642 1503 683 c 0
 1503 870 1474 1145 1441 1371 c 1
 1774 1573 l 1
 1799 1590 1812 1570 1812 1531 c 2
 1812 698 l 2
901 874 m 0
 959 874 1041 881 1047 923 c 1
 1043 937 1006 951 939 966 c 0
 807 995 742 1070 742 1193 c 0
 742 1430 1069 1459 1127 1459 c 0
 1183 1459 1178 1423 1163 1380 c 2
 1120 1257 l 1
 961 1242 882 1217 882 1185 c 0
 882 1172 913 1160 974 1150 c 0
 1116 1125 1196 1070 1196 918 c 0
 1196 769 1064 675 898 675 c 0
 824 675 738 692 639 723 c 1
 659 927 l 1
 758 892 838 874 901 874 c 0
EndSplineSet
Substitution2: "'fina' Terminal Forms in Arabic lookup 1 subtable" uniFEDA
Substitution2: "'medi' Medial Forms in Arabic lookup 2 subtable" uniFEDC
Substitution2: "'init' Initial Forms in Arabic lookup 3 subtable" uniFEDB
EndChar

StartChar: uni0644
Encoding: 1604 1604 36
Width: 1452
GlyphClass: 2
Flags: HW
AnchorPoint: "Anchor-10" 576 1160 basechar 0
AnchorPoint: "Anchor-7" 635 -787 basechar 0
LayerCount: 2
Fore
SplineSet
1340 183 m 2
 1354 -274 1147 -567 701 -567 c 0
 317 -567 77 -338 77 31 c 0
 77 217 120 389 204 549 c 1
 381 494 l 1
 347 379 329 283 329 208 c 0
 329 -16 481 -96 708 -96 c 0
 879 -96 1048 -21 1048 158 c 0
 1048 317 988 902 935 1372 c 1
 1234 1554 l 2
 1271 1578 1298 1571 1300 1514 c 2
 1340 183 l 2
EndSplineSet
Substitution2: "'fina' Terminal Forms in Arabic lookup 1 subtable" uniFEDE
Substitution2: "'medi' Medial Forms in Arabic lookup 2 subtable" uniFEE0
Substitution2: "'init' Initial Forms in Arabic lookup 3 subtable" uniFEDF
EndChar

StartChar: uni0645
Encoding: 1605 1605 37
Width: 1207
GlyphClass: 2
Flags: HW
AnchorPoint: "Anchor-10" 645 1413 basechar 0
AnchorPoint: "Anchor-7" 258 -907 basechar 0
LayerCount: 2
Fore
SplineSet
451 74 m 0
 412 74 378 67 351 55 c 1
 365 -389 l 2
 368 -472 327 -542 239 -639 c 0
 190 -693 99 -789 94 -653 c 0
 88 -478 84 -293 84 -56 c 0
 84 215 124 433 324 523 c 1
 400 805 510 998 710 998 c 0
 940 998 1138 719 1139 454 c 0
 1139 299 1034 12 896 12 c 0
 889 12 882 13 875 14 c 0
 695 54 555 74 451 74 c 0
519 534 m 1
 611 534 729 518 810 503 c 0
 852 495 883 490 896 490 c 0
 900 490 902 491 902 492 c 0
 902 507 829 696 694 696 c 0
 618 696 556 619 519 534 c 1
EndSplineSet
Substitution2: "'fina' Terminal Forms in Arabic lookup 1 subtable" uniFEE2
Substitution2: "'medi' Medial Forms in Arabic lookup 2 subtable" uniFEE4
Substitution2: "'init' Initial Forms in Arabic lookup 3 subtable" uniFEE3
EndChar

StartChar: uni0647
Encoding: 1607 1607 39
Width: 947
GlyphClass: 2
Flags: HW
AnchorPoint: "Anchor-10" 405 1361 basechar 0
AnchorPoint: "Anchor-7" 453 -196 basechar 0
LayerCount: 2
Fore
SplineSet
479 2 m 0
 218 2 75 168 75 419 c 0
 75 612 155 818 317 1034 c 0
 344 1071 375 1083 418 1067 c 0
 714 952 877 784 877 500 c 0
 877 223 749 2 479 2 c 0
411 681 m 1
 345 601 312 544 312 508 c 0
 312 455 389 444 469 444 c 0
 569 444 646 470 646 526 c 0
 646 590 527 640 411 681 c 1
EndSplineSet
Substitution2: "'fina' Terminal Forms in Arabic lookup 1 subtable" uniFEEA
Substitution2: "'medi' Medial Forms in Arabic lookup 2 subtable" uniFEEC
Substitution2: "'init' Initial Forms in Arabic lookup 3 subtable" uniFEEB
EndChar

StartChar: uni0648
Encoding: 1608 1608 40
Width: 878
GlyphClass: 2
Flags: HW
AnchorPoint: "Anchor-7" 321 -726 basechar 0
AnchorPoint: "Anchor-10" 398 1195 basechar 0
LayerCount: 2
Fore
SplineSet
507 -2 m 1
 481 -4 456 -5 429 -5 c 0
 199 -5 78 143 78 368 c 0
 78 589 186 962 443 962 c 0
 719 962 801 623 801 301 c 0
 801 43 732 -378 601 -483 c 0
 570 -508 514 -520 433 -520 c 2
 189 -520 l 2
 -40 -520 -17 -454 115 -362 c 0
 303 -231 434 -111 507 -2 c 1
301 542 m 0
 301 489 358 485 428 485 c 0
 482 485 522 485 583 486 c 1
 551 569 507 642 408 643 c 0
 350 642 301 605 301 542 c 0
EndSplineSet
Substitution2: "'fina' Terminal Forms in Arabic lookup 1 subtable" uniFEEE
EndChar

StartChar: uni0649
Encoding: 1609 1609 41
Width: 1590
GlyphClass: 2
Flags: HW
AnchorPoint: "Anchor-10" 705 1171 basechar 0
AnchorPoint: "Anchor-7" 663 -738 basechar 0
LayerCount: 2
Fore
SplineSet
1349 583 m 0
 1197 583 1083 544 1005 466 c 1
 1243 395 l 2
 1398 348 1461 317 1461 152 c 0
 1461 -268 1154 -547 730 -547 c 0
 320 -547 78 -351 78 51 c 0
 78 249 130 447 233 644 c 1
 402 581 l 1
 354 446 330 331 330 238 c 0
 330 19 471 -90 754 -90 c 0
 1068 -90 1202 17 1202 26 c 0
 1202 29 1198 31 1190 33 c 2
 922 107 l 2
 789 143 733 174 733 263 c 0
 733 622 996 984 1327 984 c 0
 1406 984 1472 963 1526 920 c 1
 1508 796 1492 688 1474 571 c 1
 1439 579 1397 583 1349 583 c 0
EndSplineSet
Substitution2: "'fina' Terminal Forms in Arabic lookup 1 subtable" uniFEF0
Substitution2: "'medi' Medial Forms in Arabic lookup 2 subtable" uniFBE9
Substitution2: "'init' Initial Forms in Arabic lookup 3 subtable" uniFBE8
EndChar

StartChar: uni064B
Encoding: 1611 1611 43
Width: 0
GlyphClass: 4
Flags: HW
AnchorPoint: "Anchor-10" 637 1182 mark 0
AnchorPoint: "Anchor-9" 637 1182 mark 0
AnchorPoint: "Anchor-1" 595 1736 basemark 0
AnchorPoint: "Anchor-1" 637 1182 mark 0
LayerCount: 2
Fore
SplineSet
344 1118 m 1
 344 1286 l 1
 797 1471 l 1
 797 1303 l 1
 344 1118 l 1
344 1380 m 1
 344 1548 l 1
 797 1734 l 1
 797 1566 l 1
 344 1380 l 1
EndSplineSet
EndChar

StartChar: uni064C
Encoding: 1612 1612 44
Width: 0
GlyphClass: 4
Flags: HW
AnchorPoint: "Anchor-10" 707 1291 mark 0
AnchorPoint: "Anchor-9" 707 1291 mark 0
AnchorPoint: "Anchor-1" 594 2015 basemark 0
AnchorPoint: "Anchor-1" 707 1291 mark 0
LayerCount: 2
Fore
SplineSet
360 1630 m 1
 366 1521 374 1394 450 1394 c 0
 539 1394 610 1448 664 1547 c 1
 537 1577 474 1645 474 1750 c 0
 474 1871 542 1950 671 1950 c 0
 793 1950 876 1874 876 1742 c 0
 876 1712 872 1683 864 1655 c 1
 887 1654 915 1653 946 1653 c 1
 946 1509 l 1
 894 1509 870 1510 802 1517 c 1
 749 1410 632 1252 479 1252 c 0
 282 1252 247 1424 241 1630 c 1
 360 1630 l 1
732 1740 m 0
 732 1780 712 1806 674 1806 c 0
 638 1806 621 1791 621 1760 c 0
 621 1714 668 1695 717 1679 c 1
 727 1702 732 1722 732 1740 c 0
EndSplineSet
EndChar

StartChar: uni064D
Encoding: 1613 1613 45
Width: 0
GlyphClass: 4
Flags: HW
AnchorPoint: "Anchor-7" 535 100 mark 0
AnchorPoint: "Anchor-6" 535 100 mark 0
AnchorPoint: "Anchor-0" 615 -407 basemark 0
AnchorPoint: "Anchor-0" 535 100 mark 0
LayerCount: 2
Fore
SplineSet
301 -496 m 1
 301 -328 l 1
 754 -143 l 1
 754 -311 l 1
 301 -496 l 1
301 -234 m 1
 301 -66 l 1
 754 120 l 1
 754 -48 l 1
 301 -234 l 1
EndSplineSet
EndChar

StartChar: uni064E
Encoding: 1614 1614 46
Width: 0
GlyphClass: 4
Flags: HW
AnchorPoint: "Anchor-10" 541 1344 mark 0
AnchorPoint: "Anchor-9" 541 1344 mark 0
AnchorPoint: "Anchor-1" 520 1658 basemark 0
AnchorPoint: "Anchor-1" 541 1344 mark 0
LayerCount: 2
Fore
SplineSet
277 1289 m 1
 277 1457 l 1
 730 1643 l 1
 730 1475 l 1
 277 1289 l 1
EndSplineSet
EndChar

StartChar: uni064F
Encoding: 1615 1615 47
Width: 0
GlyphClass: 4
Flags: HW
AnchorPoint: "Anchor-10" 598 1291 mark 0
AnchorPoint: "Anchor-9" 598 1291 mark 0
AnchorPoint: "Anchor-1" 529 1887 basemark 0
AnchorPoint: "Anchor-1" 598 1291 mark 0
LayerCount: 2
Fore
SplineSet
568 1691 m 0
 541 1691 522 1676 522 1646 c 0
 522 1611 571 1588 606 1580 c 1
 615 1605 619 1625 619 1642 c 0
 619 1675 602 1691 568 1691 c 0
381 1636 m 0
 381 1743 450 1835 570 1835 c 0
 697 1835 760 1773 760 1651 c 0
 760 1622 756 1591 746 1557 c 1
 776 1555 796 1555 823 1555 c 1
 823 1416 l 1
 772 1416 738 1418 681 1424 c 1
 594 1314 467 1243 275 1231 c 1
 275 1370 l 1
 383 1377 457 1397 524 1465 c 1
 452 1492 381 1554 381 1636 c 0
EndSplineSet
EndChar

StartChar: uni0650
Encoding: 1616 1616 48
Width: 0
GlyphClass: 4
Flags: HW
AnchorPoint: "Anchor-7" 551 -3 mark 0
AnchorPoint: "Anchor-6" 551 -3 mark 0
AnchorPoint: "Anchor-0" 595 -290 basemark 0
AnchorPoint: "Anchor-0" 551 -3 mark 0
LayerCount: 2
Fore
SplineSet
326 -338 m 1
 326 -170 l 1
 779 16 l 1
 779 -152 l 1
 326 -338 l 1
EndSplineSet
EndChar

StartChar: uni0651
Encoding: 1617 1617 49
Width: 0
GlyphClass: 4
Flags: HW
AnchorPoint: "Anchor-10" 590 1372 mark 0
AnchorPoint: "Anchor-9" 590 1372 mark 0
AnchorPoint: "Anchor-1" 560 1807 basemark 0
AnchorPoint: "Anchor-1" 590 1372 mark 0
LayerCount: 2
Fore
SplineSet
414 1510 m 0
 458 1510 481 1533 481 1582 c 2
 482 1719 l 1
 527 1734 569 1740 618 1744 c 1
 620 1634 l 2
 621 1588 643 1571 690 1571 c 0
 726 1571 743 1591 743 1631 c 0
 743 1665 743 1696 742 1729 c 1
 874 1816 l 1
 880 1761 885 1693 885 1648 c 0
 885 1470 824 1381 701 1381 c 0
 654 1381 612 1395 577 1422 c 1
 540 1354 483 1320 408 1320 c 0
 283 1320 221 1396 221 1549 c 0
 221 1587 225 1653 230 1707 c 1
 354 1657 l 1
 356 1579 l 2
 357 1537 372 1510 414 1510 c 0
EndSplineSet
EndChar

StartChar: uni0652
Encoding: 1618 1618 50
Width: 0
GlyphClass: 4
Flags: HW
AnchorPoint: "Anchor-10" 722 1528 mark 0
AnchorPoint: "Anchor-9" 722 1528 mark 0
AnchorPoint: "Anchor-1" 703 2110 basemark 0
AnchorPoint: "Anchor-1" 722 1528 mark 0
LayerCount: 2
Fore
SplineSet
711 2024 m 0
 857 2024 943 1937 943 1787 c 0
 943 1653 834 1560 711 1560 c 0
 583 1560 480 1665 480 1793 c 0
 480 1929 577 2024 711 2024 c 0
711 1695 m 0
 764 1695 809 1729 809 1790 c 0
 809 1846 769 1890 715 1890 c 0
 649 1890 613 1852 613 1786 c 0
 613 1729 654 1697 711 1695 c 0
EndSplineSet
EndChar

StartChar: uni0653
Encoding: 1619 1619 51
Width: 0
GlyphClass: 4
Flags: HW
AnchorPoint: "Anchor-10" 485 1591 mark 0
AnchorPoint: "Anchor-9" 485 1591 mark 0
AnchorPoint: "Anchor-1" 455 2067 basemark 0
AnchorPoint: "Anchor-1" 485 1591 mark 0
LayerCount: 2
Fore
SplineSet
323 1944 m 0
 360 1944 420 1938 479 1931 c 0
 537 1924 595 1919 631 1919 c 0
 670 1919 705 1919 773 1940 c 0
 963 1998 806 1789 744 1719 c 0
 701 1671 632 1660 526 1660 c 0
 479 1660 423 1663 361 1668 c 1
 309 1667 249 1635 180 1573 c 1
 147 1594 121 1617 103 1642 c 1
 168 1873 223 1944 323 1944 c 0
EndSplineSet
EndChar

StartChar: uni0657
Encoding: 1623 1623 54
Width: 0
GlyphClass: 4
Flags: HW
AnchorPoint: "Anchor-10" 744 1787 mark 0
AnchorPoint: "Anchor-9" 744 1787 mark 0
AnchorPoint: "Anchor-1" 744 2747 basemark 0
AnchorPoint: "Anchor-1" 744 1787 mark 0
LayerCount: 2
Fore
SplineSet
394 2107 m 0
 394 2146 401 2190 416 2239 c 1
 384 2241 350 2242 310 2242 c 1
 310 2411 l 1
 373 2409 425 2406 496 2400 c 1
 644 2600 814 2689 1052 2709 c 1
 1052 2540 l 1
 939 2532 791 2459 690 2353 c 1
 804 2315 891 2237 891 2102 c 0
 891 1961 792 1871 646 1871 c 0
 488 1871 394 1981 394 2107 c 0
566 2130 m 0
 566 2074 587 2046 627 2040 c 1
 686 2040 716 2064 716 2111 c 0
 716 2151 672 2184 586 2211 c 1
 572 2179 566 2152 566 2130 c 0
EndSplineSet
EndChar

StartChar: uni065A
Encoding: 1626 1626 55
Width: 1473
GlyphClass: 4
Flags: HW
AnchorPoint: "Anchor-10" 744 1787 mark 0
AnchorPoint: "Anchor-9" 744 1787 mark 0
AnchorPoint: "Anchor-1" 741 2452 basemark 0
AnchorPoint: "Anchor-1" 744 1787 mark 0
LayerCount: 2
Fore
SplineSet
633 1876 m 1
 341 2363 l 1
 554 2363 l 1
 744 2078 l 1
 934 2363 l 1
 1147 2363 l 1
 855 1876 l 1
 633 1876 l 1
EndSplineSet
EndChar

StartChar: uni0660
Encoding: 1632 1632 56
Width: 897
GlyphClass: 2
Flags: HW
LayerCount: 2
Fore
SplineSet
451 903 m 1
 756 597 l 1
 445 286 l 1
 140 592 l 1
 451 903 l 1
EndSplineSet
EndChar

StartChar: uni0661
Encoding: 1633 1633 57
Width: 788
GlyphClass: 2
Flags: HW
LayerCount: 2
Fore
SplineSet
436 1502 m 0
 547 1188 608 787 608 311 c 0
 608 223 601 153 588 99 c 0
 573 37 477 10 334 -2 c 1
 325 447 244 871 91 1267 c 1
 360 1519 l 2
 393 1550 419 1549 436 1502 c 0
EndSplineSet
EndChar

StartChar: uni0662
Encoding: 1634 1634 58
Width: 1220
GlyphClass: 2
Flags: HW
LayerCount: 2
Fore
SplineSet
712 1205 m 0
 836 1205 906 1280 921 1432 c 2
 928 1502 l 1
 1129 1502 l 1
 1129 1419 l 1
 1125 983 976 764 683 764 c 0
 658 764 625 766 586 770 c 1
 600 635 608 483 608 321 c 0
 608 234 601 161 588 99 c 0
 575 37 479 10 334 -2 c 1
 325 462 244 892 91 1287 c 1
 360 1519 l 2
 393 1548 421 1549 436 1502 c 0
 464 1417 483 1356 493 1321 c 0
 516 1243 589 1205 712 1205 c 0
EndSplineSet
EndChar

StartChar: uni0663
Encoding: 1635 1635 59
Width: 1385
GlyphClass: 2
Flags: HW
LayerCount: 2
Fore
SplineSet
586 772 m 1
 600 637 608 484 608 321 c 0
 608 234 601 161 588 99 c 0
 575 37 479 10 334 -2 c 1
 325 462 244 892 91 1287 c 1
 360 1519 l 2
 393 1548 421 1549 436 1502 c 0
 464 1417 483 1356 493 1321 c 0
 515 1245 560 1205 627 1205 c 0
 687 1205 721 1250 728 1341 c 2
 738 1460 l 1
 934 1460 l 1
 933 1354 l 2
 933 1254 960 1202 1016 1202 c 0
 1060 1202 1087 1253 1096 1356 c 2
 1106 1479 l 1
 1308 1479 l 1
 1307 1410 l 2
 1302 996 1201 790 1002 790 c 0
 920 790 856 832 808 916 c 1
 755 832 691 785 614 774 c 0
 605 773 596 772 586 772 c 1
EndSplineSet
EndChar

StartChar: uni0664
Encoding: 1636 1636 60
Width: 982
GlyphClass: 2
Flags: HW
LayerCount: 2
Fore
SplineSet
439 464 m 0
 523 424 681 402 910 400 c 1
 904 129 l 2
 902 21 896 10 817 10 c 0
 500 10 91 83 91 310 c 0
 91 443 223 598 378 701 c 1
 180 802 81 905 81 1008 c 0
 81 1159 284 1327 692 1516 c 0
 792 1564 848 1558 823 1434 c 2
 756 1102 l 1
 681 1089 586 1065 475 1022 c 0
 470 1020 470 1020 475 1017 c 0
 577 953 681 901 792 853 c 1
 798 799 802 748 806 696 c 1
 656 630 524 555 438 469 c 0
 435 466 435 466 439 464 c 0
EndSplineSet
EndChar

StartChar: uni0665
Encoding: 1637 1637 61
Width: 1196
GlyphClass: 2
Flags: HW
LayerCount: 2
Fore
SplineSet
581 941 m 1
 448 778 382 649 382 557 c 0
 382 450 451 397 588 397 c 0
 744 397 822 448 822 549 c 0
 822 657 742 788 581 941 c 1
308 1173 m 1
 506 1524 l 1
 908 1168 1116 836 1116 514 c 0
 1116 211 895 -11 584 -11 c 0
 287 -11 67 196 67 484 c 0
 67 656 171 867 382 1118 c 1
 308 1173 l 1
EndSplineSet
EndChar

StartChar: uni0666
Encoding: 1638 1638 62
Width: 1259
GlyphClass: 2
Flags: HW
LayerCount: 2
Fore
SplineSet
975 1471 m 1
 1005 602 1037 350 1150 217 c 1
 940 -20 l 1
 793 124 741 218 691 1041 c 1
 597 1026 506 1019 419 1019 c 0
 269 1019 182 1038 132 1093 c 0
 80 1151 69 1248 69 1404 c 0
 69 1516 85 1523 181 1487 c 0
 279 1450 400 1432 547 1432 c 0
 670 1432 832 1452 975 1471 c 1
EndSplineSet
EndChar

StartChar: uni0667
Encoding: 1639 1639 63
Width: 1321
GlyphClass: 2
Flags: HW
LayerCount: 2
Fore
SplineSet
1270 1294 m 1
 1054 891 891 459 780 -2 c 1
 551 -2 l 1
 443 473 277 905 51 1291 c 1
 273 1535 l 2
 301 1566 323 1546 343 1507 c 0
 459 1267 565 952 662 561 c 1
 755 979 851 1289 948 1492 c 0
 967 1533 989 1555 1019 1529 c 1
 1270 1294 l 1
EndSplineSet
EndChar

StartChar: uni0668
Encoding: 1640 1640 64
Width: 1321
GlyphClass: 2
Flags: HW
LayerCount: 2
Fore
SplineSet
1270 226 m 1
 1019 -8 l 2
 990 -35 968 -15 948 28 c 0
 851 231 755 541 662 959 c 1
 565 568 459 253 343 13 c 0
 323 -26 301 -46 273 -15 c 2
 51 230 l 1
 277 617 443 1047 551 1522 c 1
 780 1522 l 1
 891 1061 1054 629 1270 226 c 1
EndSplineSet
EndChar

StartChar: uni0669
Encoding: 1641 1641 65
Width: 1150
GlyphClass: 2
Flags: HW
LayerCount: 2
Fore
SplineSet
483 985 m 0
 533 985 586 989 640 997 c 1
 627 1111 578 1182 465 1182 c 0
 392 1182 323 1127 323 1045 c 0
 323 992 383 985 483 985 c 0
509 1528 m 0
 774 1528 913 1268 918 988 c 0
 924 587 975 330 1071 216 c 1
 874 -20 l 1
 739 55 666 265 657 612 c 1
 586 602 523 597 466 597 c 0
 203 597 88 715 88 964 c 0
 88 1240 232 1528 509 1528 c 0
EndSplineSet
EndChar

StartChar: uni066A
Encoding: 1642 1642 66
Width: 1311
GlyphClass: 2
Flags: HW
LayerCount: 2
Fore
SplineSet
343 1088 m 0
 221 1088 121 1188 121 1310 c 0
 121 1431 221 1532 342 1532 c 0
 465 1532 565 1434 565 1312 c 0
 565 1189 466 1088 343 1088 c 0
827 1500 m 1
 1077 1370 l 1
 380 11 l 1
 129 145 l 1
 827 1500 l 1
969 153 m 0
 847 153 747 253 747 375 c 0
 747 496 847 597 967 597 c 0
 1091 597 1191 499 1191 375 c 0
 1191 253 1092 153 969 153 c 0
EndSplineSet
EndChar

StartChar: uni066B
Encoding: 1643 1643 67
Width: 908
GlyphClass: 2
Flags: HW
LayerCount: 2
Fore
SplineSet
549 820 m 1
 783 722 l 1
 237 -423 l 1
 1 -322 l 1
 549 820 l 1
EndSplineSet
PairPos2: "'kern' Horizontal Kerning lookup 0 subtable 6" uni06F4 dx=-110 dy=0 dh=-110 dv=0 dx=0 dy=0 dh=0 dv=0
PairPos2: "'kern' Horizontal Kerning lookup 0 subtable 6" uni06F3 dx=-130 dy=0 dh=-130 dv=0 dx=0 dy=0 dh=0 dv=0
PairPos2: "'kern' Horizontal Kerning lookup 0 subtable 6" uni06F2 dx=-130 dy=0 dh=-130 dv=0 dx=0 dy=0 dh=0 dv=0
EndChar

StartChar: uni066C
Encoding: 1644 1644 68
Width: 529
GlyphClass: 2
Flags: HW
LayerCount: 2
Fore
SplineSet
76 166 m 0
 76 280 149 365 259 365 c 0
 381 365 446 275 446 152 c 0
 446 -57 333 -212 126 -332 c 0
 65 -368 -12 -302 71 -239 c 0
 128 -195 222 -95 228 2 c 1
 142 10 76 72 76 166 c 0
EndSplineSet
PairPos2: "'kern' Horizontal Kerning lookup 0 subtable 6" uni06F4 dx=-112 dy=0 dh=-112 dv=0 dx=0 dy=0 dh=0 dv=0
PairPos2: "'kern' Horizontal Kerning lookup 0 subtable 6" uni06F3 dx=-128 dy=0 dh=-128 dv=0 dx=0 dy=0 dh=0 dv=0
PairPos2: "'kern' Horizontal Kerning lookup 0 subtable 6" uni06F2 dx=-112 dy=0 dh=-112 dv=0 dx=0 dy=0 dh=0 dv=0
EndChar

StartChar: uni066D
Encoding: 1645 1645 69
Width: 1734
GlyphClass: 2
Flags: HW
LayerCount: 2
Fore
SplineSet
124 1219 m 1
 692 1219 l 1
 869 1758 l 1
 1046 1219 l 1
 1614 1219 l 1
 1155 883 l 1
 1331 344 l 1
 869 678 l 1
 407 344 l 1
 583 883 l 1
 124 1219 l 1
EndSplineSet
EndChar

StartChar: uni066E
Encoding: 1646 1646 70
Width: 1815
GlyphClass: 2
Flags: HW
AnchorPoint: "Anchor-10" 799 1301 basechar 0
AnchorPoint: "Anchor-7" 656 -183 basechar 0
LayerCount: 2
Fore
SplineSet
834 0 m 0
 393 0 78 127 78 539 c 0
 78 694 116 846 191 994 c 1
 346 938 l 1
 326 866 316 805 316 747 c 0
 316 562 528 491 853 491 c 0
 1185 491 1483 513 1483 589 c 0
 1483 612 1439 710 1393 808 c 1
 1575 1033 l 2
 1590 1049 1601 1057 1614 1037 c 0
 1701 897 1745 754 1745 559 c 0
 1745 121 1381 0 834 0 c 0
EndSplineSet
Substitution2: "'fina' Terminal Forms in Arabic lookup 1 subtable" uni066E.fina
Substitution2: "'medi' Medial Forms in Arabic lookup 2 subtable" uniFBE9
Substitution2: "'init' Initial Forms in Arabic lookup 3 subtable" uniFBE8
EndChar

StartChar: uni066F
Encoding: 1647 1647 71
Width: 1438
GlyphClass: 2
Flags: HW
AnchorPoint: "Anchor-10" 558 1195 basechar 0
AnchorPoint: "Anchor-7" 579 -667 basechar 0
LayerCount: 2
Fore
SplineSet
986 176 m 0
 783 176 696 256 696 436 c 0
 696 735 827 950 1022 950 c 0
 1281 950 1368 623 1368 335 c 0
 1368 -186 1193 -466 709 -466 c 0
 311 -466 77 -253 77 132 c 0
 77 317 120 490 204 650 c 1
 381 595 l 1
 347 479 329 384 329 309 c 0
 329 77 488 5 734 5 c 0
 970 5 1114 68 1166 191 c 1
 1097 181 1040 176 986 176 c 0
1022 511 m 0
 1067 511 1131 515 1164 521 c 1
 1124 612 1072 657 1006 657 c 0
 941 657 892 621 892 560 c 0
 892 513 945 511 1022 511 c 0
EndSplineSet
Substitution2: "'fina' Terminal Forms in Arabic lookup 1 subtable" uni066F.fina
Substitution2: "'medi' Medial Forms in Arabic lookup 2 subtable" uni06A1.medi
Substitution2: "'init' Initial Forms in Arabic lookup 3 subtable" uni06A1.init
EndChar

StartChar: uni0670
Encoding: 1648 1648 72
Width: 0
GlyphClass: 4
Flags: HW
AnchorPoint: "Anchor-10" 756 1779 mark 0
AnchorPoint: "Anchor-9" 756 1779 mark 0
AnchorPoint: "Anchor-1" 744 2296 basemark 0
AnchorPoint: "Anchor-1" 756 1779 mark 0
LayerCount: 2
Fore
SplineSet
713 1797 m 1
 651 2185 l 1
 836 2295 l 1
 836 1838 l 1
 713 1797 l 1
EndSplineSet
EndChar

StartChar: uni0674
Encoding: 1652 1652 73
Width: 802
GlyphClass: 2
Flags: HW
LayerCount: 2
Fore
SplineSet
177 1763 m 1
 205 1966 l 1
 224 1977 242 1987 261 1997 c 1
 202 2030 173 2082 173 2150 c 0
 173 2298 282 2416 436 2416 c 0
 511 2416 579 2386 641 2325 c 1
 584 2195 l 1
 524 2218 474 2230 434 2230 c 0
 356 2230 326 2178 326 2165 c 0
 326 2152 350 2105 436 2105 c 0
 475 2105 517 2112 543 2119 c 0
 612 2137 638 2137 638 2089 c 2
 638 1946 l 1
 459 1889 313 1831 177 1763 c 1
EndSplineSet
EndChar

StartChar: uni0686
Encoding: 1670 1670 75
Width: 1362
GlyphClass: 2
Flags: HW
AnchorPoint: "Anchor-7" 637 -850 basechar 0
AnchorPoint: "Anchor-10" 680 1352 basechar 0
LayerCount: 2
Fore
SplineSet
825.264648438 38.0322265625 m 2
 957.359375 -93.2958984375 l 2
 958.127929688 -94.064453125 958.127929688 -94.064453125 957.359375 -94.83203125 c 2
 825.264648438 -226.927734375 l 2
 824.495117188 -227.696289062 824.495117188 -227.696289062 823.727539062 -226.927734375 c 2
 692.400390625 -94.83203125 l 2
 691.631835938 -94.064453125 691.631835938 -94.064453125 692.400390625 -93.2958984375 c 2
 823.727539062 38.0322265625 l 2
 824.495117188 38.7998046875 824.495117188 38.7998046875 825.264648438 38.0322265625 c 2
968.879882812 246.927734375 m 2
 1100.97558594 115.599609375 l 2
 1101.74414062 114.83203125 1101.74414062 114.83203125 1100.97558594 114.064453125 c 2
 968.879882812 -18.0322265625 l 2
 968.112304688 -18.7998046875 968.112304688 -18.7998046875 967.34375 -18.0322265625 c 2
 836.015625 114.064453125 l 2
 835.248046875 114.83203125 835.248046875 114.83203125 836.015625 115.599609375 c 2
 967.34375 246.927734375 l 2
 968.112304688 247.696289062 968.112304688 247.696289062 968.879882812 246.927734375 c 2
681.647460938 246.927734375 m 2
 813.744140625 115.599609375 l 2
 814.51171875 114.83203125 814.51171875 114.83203125 813.744140625 114.064453125 c 2
 681.647460938 -18.0322265625 l 2
 680.879882812 -18.7998046875 680.879882812 -18.7998046875 680.112304688 -18.0322265625 c 2
 548.784179688 114.064453125 l 2
 548.015625 114.83203125 548.015625 114.83203125 548.784179688 115.599609375 c 2
 680.112304688 246.927734375 l 2
 680.879882812 247.696289062 680.879882812 247.696289062 681.647460938 246.927734375 c 2
EndSplineSet
Refer: 18 1581 N 1 0 0 1 0 0 2
Substitution2: "'fina' Terminal Forms in Arabic lookup 1 subtable" uniFB7B
Substitution2: "'medi' Medial Forms in Arabic lookup 2 subtable" uniFB7D
Substitution2: "'init' Initial Forms in Arabic lookup 3 subtable" uniFB7C
EndChar

StartChar: uni06A1
Encoding: 1697 1697 77
Width: 1730
GlyphClass: 2
Flags: HW
AnchorPoint: "Anchor-10" 740 1477 basechar 0
AnchorPoint: "Anchor-7" 634 -169 basechar 0
LayerCount: 2
Fore
SplineSet
1306 917 m 0
 1351 917 1415 921 1448 927 c 1
 1408 1018 1355 1064 1289 1064 c 0
 1224 1064 1176 1028 1176 967 c 0
 1176 920 1229 917 1306 917 c 0
1277 593 m 0
 1068 593 980 665 980 842 c 0
 980 1143 1106 1357 1312 1357 c 0
 1565 1357 1661 1003 1661 704 c 0
 1661 110 1465 0 846 0 c 0
 397 0 79 122 79 539 c 0
 79 720 117 872 192 995 c 1
 345 938 l 1
 326 868 317 808 317 759 c 0
 317 500 644 490 961 490 c 0
 1320 490 1431 507 1450 607 c 1
 1385 597 1328 593 1277 593 c 0
EndSplineSet
Substitution2: "'fina' Terminal Forms in Arabic lookup 1 subtable" uni06A1.fina
Substitution2: "'medi' Medial Forms in Arabic lookup 2 subtable" uni06A1.medi
Substitution2: "'init' Initial Forms in Arabic lookup 3 subtable" uni06A1.init
EndChar

StartChar: uni06A9
Encoding: 1705 1705 78
Width: 1940
GlyphClass: 2
Flags: HW
AnchorPoint: "Anchor-10" 988 1561 basechar 0
AnchorPoint: "Anchor-7" 827 -210 basechar 0
LayerCount: 2
Fore
SplineSet
1328 1115 m 1
 1555 927 1669 745 1669 565 c 0
 1669 154 1295 0 804 0 c 0
 386 0 78 141 78 539 c 0
 78 694 116 846 191 994 c 1
 346 938 l 1
 326 866 316 805 316 756 c 0
 316 556 542 491 826 491 c 0
 1134 491 1347 529 1347 599 c 0
 1347 674 1039 914 921 1005 c 1
 994 1348 l 1
 1827 1617 l 2
 1853 1627 1875 1623 1871 1590 c 2
 1828 1275 l 1
 1328 1115 l 1
EndSplineSet
Substitution2: "'fina' Terminal Forms in Arabic lookup 1 subtable" uniFB8F
Substitution2: "'medi' Medial Forms in Arabic lookup 2 subtable" uniFB91
Substitution2: "'init' Initial Forms in Arabic lookup 3 subtable" uniFB90
EndChar

StartChar: uni06AF
Encoding: 1711 1711 79
Width: 1940
GlyphClass: 2
Flags: HW
AnchorPoint: "Anchor-10" 1053 1622 basechar 0
AnchorPoint: "Anchor-7" 751 -220 basechar 0
LayerCount: 2
Fore
SplineSet
826 491 m 0
 1156 491 1330 520 1330 580 c 0
 1330 624 1057 829 922 900 c 1
 995 1238 l 1
 1831 1508 l 2
 1859 1518 1876 1507 1871 1472 c 2
 1829 1165 l 1
 1329 1006 l 1
 1552 843 1662 686 1662 529 c 0
 1662 142 1280 0 804 0 c 0
 386 0 78 141 78 539 c 0
 78 694 116 846 191 994 c 1
 346 938 l 1
 326 866 316 805 316 756 c 0
 316 539 542 491 826 491 c 0
EndSplineSet
Refer: 270 -1 N 1.1342 0 0 1.1342 1015 -601 2
Substitution2: "'fina' Terminal Forms in Arabic lookup 1 subtable" uniFB93
Substitution2: "'medi' Medial Forms in Arabic lookup 2 subtable" uniFB95
Substitution2: "'init' Initial Forms in Arabic lookup 3 subtable" uniFB94
EndChar

StartChar: uni06BA
Encoding: 1722 1722 80
Width: 1427
GlyphClass: 2
Flags: HW
LayerCount: 2
Fore
SplineSet
699 -429 m 0
 312 -429 77 -212 77 169 c 0
 77 341 120 515 204 688 c 1
 381 633 l 1
 347 518 329 421 329 344 c 0
 329 124 483 43 705 43 c 0
 1022 43 1110 184 1110 238 c 0
 1110 275 1017 415 932 540 c 1
 1144 835 l 2
 1158 855 1172 855 1187 837 c 0
 1300 691 1356 497 1356 255 c 0
 1356 -166 1136 -429 699 -429 c 0
EndSplineSet
Substitution2: "'fina' Terminal Forms in Arabic lookup 1 subtable" uniFB9F
Substitution2: "'medi' Medial Forms in Arabic lookup 2 subtable" uniFBE9
Substitution2: "'init' Initial Forms in Arabic lookup 3 subtable" uniFBE8
EndChar

StartChar: uni06F4
Encoding: 1780 1780 87
Width: 1308
GlyphClass: 2
Flags: HW
LayerCount: 2
Fore
SplineSet
953 1275 m 0
 867 1275 771 1218 771 1119 c 0
 771 1048 891 1020 966 1020 c 0
 1034 1020 1110 1037 1193 1073 c 1
 1227 838 l 1
 1142 753 1029 709 882 709 c 0
 776 709 677 734 585 785 c 1
 599 642 608 486 608 321 c 0
 608 234 601 161 588 99 c 0
 575 37 479 10 334 -2 c 1
 325 447 244 871 91 1267 c 1
 360 1519 l 2
 392 1549 422 1550 436 1502 c 0
 477 1359 513 1236 584 1172 c 1
 583 1183 583 1194 583 1205 c 0
 583 1401 708 1536 912 1536 c 0
 1027 1536 1115 1480 1191 1386 c 1
 1129 1231 l 1
 1074 1253 1003 1275 953 1275 c 0
EndSplineSet
PairPos2: "'kern' Horizontal Kerning lookup 0 subtable 6" uni06F8 dx=-70 dy=0 dh=-70 dv=0 dx=0 dy=0 dh=0 dv=0
PairPos2: "'kern' Horizontal Kerning lookup 0 subtable 6" uni06F5 dx=-70 dy=0 dh=-70 dv=0 dx=0 dy=0 dh=0 dv=0
EndChar

StartChar: uni06F5
Encoding: 1781 1781 88
Width: 1256
GlyphClass: 2
Flags: HW
LayerCount: 2
Fore
SplineSet
700 607 m 1
 729 485 771 390 853 390 c 0
 913 390 944 415 944 466 c 0
 944 572 826 742 590 975 c 1
 409 713 318 545 318 469 c 0
 318 416 350 390 415 390 c 0
 494 390 530 491 561 610 c 1
 700 607 l 1
638 139 m 1
 578 49 494 5 387 5 c 0
 176 5 71 128 71 372 c 0
 71 594 178 869 391 1199 c 1
 349 1247 l 1
 532 1516 l 2
 544 1534 561 1533 581 1512 c 0
 972 1121 1186 733 1186 389 c 0
 1186 133 1088 5 894 5 c 0
 789 5 704 49 638 139 c 1
EndSplineSet
PairPos2: "'kern' Horizontal Kerning lookup 0 subtable 6" uni06F0 dx=-30 dy=0 dh=-30 dv=0 dx=0 dy=0 dh=0 dv=0
PairPos2: "'kern' Horizontal Kerning lookup 0 subtable 6" uni06F7 dx=-70 dy=0 dh=-70 dv=0 dx=0 dy=0 dh=0 dv=0
PairPos2: "'kern' Horizontal Kerning lookup 0 subtable 6" uni06F6 dx=-70 dy=0 dh=-70 dv=0 dx=0 dy=0 dh=0 dv=0
PairPos2: "'kern' Horizontal Kerning lookup 0 subtable 6" uni06F4 dx=-70 dy=0 dh=-70 dv=0 dx=0 dy=0 dh=0 dv=0
PairPos2: "'kern' Horizontal Kerning lookup 0 subtable 6" uni06F3 dx=-100 dy=0 dh=-100 dv=0 dx=0 dy=0 dh=0 dv=0
PairPos2: "'kern' Horizontal Kerning lookup 0 subtable 6" uni06F2 dx=-100 dy=0 dh=-100 dv=0 dx=0 dy=0 dh=0 dv=0
EndChar

StartChar: uni06F6
Encoding: 1782 1782 89
Width: 1140
GlyphClass: 2
Flags: HW
LayerCount: 2
Fore
SplineSet
611 1196 m 0
 450 1196 366 1086 366 1050 c 0
 366 974 487 912 694 912 c 1
 806 977 886 1021 933 1044 c 0
 972 1063 1002 1074 1023 1074 c 0
 1058 1074 1065 1039 1061 993 c 2
 1034 700 l 1
 820 605 579 363 313 -27 c 1
 145 80 l 2
 117 98 109 121 120 153 c 0
 182 315 268 471 380 620 c 1
 187 698 90 836 90 1034 c 0
 90 1264 284 1527 545 1527 c 0
 685 1527 800 1479 909 1382 c 1
 820 1146 l 1
 743 1179 674 1196 611 1196 c 0
EndSplineSet
EndChar

StartChar: uniFB7B
Encoding: 64379 64379 98
Width: 1367
GlyphClass: 2
Flags: HW
AnchorPoint: "Anchor-7" 637 -850 basechar 0
AnchorPoint: "Anchor-10" 733 1303 basechar 0
LayerCount: 2
Fore
SplineSet
699.225585938 0.228515625 m 2
 818.111328125 -117.966796875 l 2
 818.802734375 -118.657226562 818.802734375 -118.657226562 818.111328125 -119.348632812 c 2
 699.225585938 -238.235351562 l 2
 698.534179688 -238.926757812 698.534179688 -238.926757812 697.842773438 -238.235351562 c 2
 579.6484375 -119.348632812 l 2
 578.95703125 -118.657226562 578.95703125 -118.657226562 579.6484375 -117.966796875 c 2
 697.842773438 0.228515625 l 2
 698.534179688 0.919921875 698.534179688 0.919921875 699.225585938 0.228515625 c 2
828.479492188 188.235351562 m 2
 947.366210938 70.0400390625 l 2
 948.057617188 69.3486328125 948.057617188 69.3486328125 947.366210938 68.6572265625 c 2
 828.479492188 -50.228515625 l 2
 827.7890625 -50.919921875 827.7890625 -50.919921875 827.09765625 -50.228515625 c 2
 708.90234375 68.6572265625 l 2
 708.2109375 69.3486328125 708.2109375 69.3486328125 708.90234375 70.0400390625 c 2
 827.09765625 188.235351562 l 2
 827.7890625 188.926757812 827.7890625 188.926757812 828.479492188 188.235351562 c 2
569.970703125 188.235351562 m 2
 688.857421875 70.0400390625 l 2
 689.548828125 69.3486328125 689.548828125 69.3486328125 688.857421875 68.6572265625 c 2
 569.970703125 -50.228515625 l 2
 569.280273438 -50.919921875 569.280273438 -50.919921875 568.588867188 -50.228515625 c 2
 450.393554688 68.6572265625 l 2
 449.702148438 69.3486328125 449.702148438 69.3486328125 450.393554688 70.0400390625 c 2
 568.588867188 188.235351562 l 2
 569.280273438 188.926757812 569.280273438 188.926757812 569.970703125 188.235351562 c 2
EndSplineSet
Refer: 170 65186 N 1 0 0 1 0 0 2
EndChar

StartChar: uniFB8F
Encoding: 64399 64399 104
Width: 2131
GlyphClass: 2
Flags: HW
AnchorPoint: "Anchor-7" 827 -210 basechar 0
AnchorPoint: "Anchor-10" 1010 1561 basechar 0
LayerCount: 2
Fore
SplineSet
814 0 m 0
 388 0 78 136 78 539 c 0
 78 694 116 846 191 994 c 1
 346 938 l 1
 326 866 316 805 316 756 c 0
 316 550 542 491 826 491 c 0
 1135 491 1349 526 1349 599 c 0
 1349 674 1041 914 923 1005 c 1
 996 1348 l 1
 1832 1618 l 1
 1861 1629 1877 1619 1873 1590 c 2
 1830 1275 l 1
 1330 1115 l 1
 1477 978 1619 846 1769 705 c 0
 1918 565 2035 495 2121 495 c 2
 2136 495 l 2
 2153 495 2161 434 2161 313 c 2
 2161 171 l 2
 2161 57 2153 0 2136 0 c 2
 2114 0 l 2
 1923 0 1744 105 1576 315 c 1
 1461 105 1208 0 814 0 c 0
EndSplineSet
EndChar

StartChar: uniFB93
Encoding: 64403 64403 108
Width: 2046
GlyphClass: 2
Flags: HW
AnchorPoint: "Anchor-7" 763 -214 basechar 0
AnchorPoint: "Anchor-10" 1042 1616 basechar 0
LayerCount: 2
Fore
SplineSet
846 491 m 0
 1163 491 1330 520 1330 580 c 0
 1330 636 1034 842 922 900 c 1
 995 1238 l 1
 1831 1508 l 2
 1860 1519 1876 1509 1872 1480 c 2
 1829 1165 l 1
 1329 1006 l 1
 1402 940 1510 845 1585 783 c 0
 1773 628 1970 495 2044 495 c 2
 2051 495 l 2
 2068 495 2076 434 2076 313 c 2
 2076 181 l 2
 2076 60 2068 0 2051 0 c 2
 2039 0 l 2
 1842 0 1670 94 1521 280 c 1
 1405 94 1170 0 814 0 c 0
 388 0 78 136 78 539 c 0
 78 694 116 846 191 994 c 1
 346 938 l 1
 326 866 316 805 316 756 c 0
 316 555 547 491 846 491 c 0
EndSplineSet
Refer: 270 -1 N 1.1342 0 0 1.1342 1015 -601 2
EndChar

StartChar: uniFB94
Encoding: 64404 64404 109
Width: 1030
GlyphClass: 2
Flags: HW
AnchorPoint: "Anchor-10" 290 2022 basechar 0
AnchorPoint: "Anchor-7" 334 -224 basechar 0
LayerCount: 2
Fore
SplineSet
12 896 m 1
 84 1236 l 1
 920 1506 l 2
 949 1517 965 1507 961 1478 c 2
 918 1163 l 1
 417 1004 l 1
 644 831 758 661 758 492 c 0
 758 162 520 0 80 0 c 2
 -6 0 l 2
 -42 0 -60 57 -60 171 c 2
 -60 303 l 2
 -60 431 -42 495 -6 495 c 2
 84 495 l 2
 256 495 422 513 422 560 c 0
 422 614 230 755 12 896 c 1
EndSplineSet
Refer: 270 -1 N 1.1342 0 0 1.1342 105 -601 2
EndChar

StartChar: uniFB95
Encoding: 64405 64405 110
Width: 1135
GlyphClass: 2
Flags: HW
AnchorPoint: "Anchor-10" 227 1988 basechar 0
AnchorPoint: "Anchor-7" 367 -197 basechar 0
LayerCount: 2
Fore
SplineSet
422 559 m 0
 422 606 269 729 12 898 c 1
 85 1236 l 1
 921 1506 l 2
 950 1517 966 1507 962 1478 c 2
 919 1163 l 1
 418 1004 l 1
 545 897 632 824 679 786 c 0
 907 592 1059 495 1133 495 c 2
 1140 495 l 2
 1157 495 1165 431 1165 303 c 2
 1165 171 l 2
 1165 57 1157 0 1140 0 c 2
 1128 0 l 2
 988 0 842 88 689 265 c 1
 599 88 406 0 111 0 c 2
 -6 0 l 2
 -43 0 -61 60 -61 181 c 2
 -61 313 l 2
 -61 434 -43 495 -6 495 c 2
 114 495 l 2
 294 495 422 518 422 559 c 0
EndSplineSet
Refer: 270 -1 N 1.1342 0 0 1.1342 105 -601 2
EndChar

StartChar: uniFB9F
Encoding: 64415 64415 112
Width: 1449
GlyphClass: 2
Flags: HW
AnchorPoint: "Anchor-10" 591 1036 basechar 0
AnchorPoint: "Anchor-7" 467 -979 basechar 0
LayerCount: 2
Fore
SplineSet
1337 34 m 1
 1307 -348 1112 -566 709 -567 c 0
 311 -567 77 -354 77 31 c 0
 77 203 120 376 204 549 c 1
 381 494 l 1
 347 379 329 283 329 208 c 0
 329 -18 483 -96 715 -96 c 0
 1008 -96 1109 34 1109 95 c 0
 1109 134 1019 274 932 402 c 1
 1146 700 l 2
 1159 717 1175 715 1192 694 c 0
 1213 668 1235 640 1259 608 c 0
 1317 531 1370 495 1411 495 c 2
 1454 495 l 2
 1471 495 1479 434 1479 313 c 2
 1479 181 l 2
 1479 60 1471 0 1454 0 c 2
 1422 0 l 2
 1397 0 1369 11 1337 34 c 1
EndSplineSet
EndChar

StartChar: uniFBE8
Encoding: 64488 64488 115
Width: 648
GlyphClass: 2
Flags: HW
AnchorPoint: "Anchor-10" 303 1303 basechar 0
AnchorPoint: "Anchor-7" 351 -229 basechar 0
LayerCount: 2
Fore
SplineSet
587 594 m 0
 587 274 444 0 117 0 c 2
 -5 0 l 2
 -42 0 -60 57 -60 171 c 2
 -60 303 l 2
 -60 431 -42 495 -5 495 c 2
 147 495 l 2
 227 495 319 515 319 575 c 0
 319 630 282 710 233 811 c 1
 412 1033 l 2
 429 1054 446 1056 461 1032 c 0
 545 902 587 757 587 594 c 0
EndSplineSet
EndChar

StartChar: uniFBE9
Encoding: 64489 64489 116
Width: 728
GlyphClass: 2
Flags: HW
AnchorPoint: "Anchor-10" 376 1190 basechar 0
AnchorPoint: "Anchor-7" 350 -188 basechar 0
LayerCount: 2
Fore
SplineSet
-5 495 m 2
 108 495 l 2
 238 495 312 548 327 655 c 2
 347 793 l 1
 508 793 l 1
 529 658 l 2
 546 549 609 495 715 495 c 2
 733 495 l 2
 750 495 758 431 758 303 c 2
 758 171 l 2
 758 57 750 0 733 0 c 2
 712 0 l 2
 579 0 481 57 415 172 c 1
 335 57 224 0 85 0 c 2
 -5 0 l 2
 -42 0 -60 57 -60 171 c 2
 -60 303 l 2
 -60 431 -42 495 -5 495 c 2
EndSplineSet
EndChar

StartChar: uniFE73
Encoding: 65139 65139 124
Width: 895
GlyphClass: 2
Flags: HW
AnchorPoint: "Anchor-10" 331 2045 basechar 0
AnchorPoint: "Anchor-7" 331 -142 basechar 0
LayerCount: 2
Fore
SplineSet
716 30 m 2
 402 30 180 252 180 565 c 2
 180 633 l 1
 482 633 l 1
 482 585 l 2
 482 424 625 332 809 332 c 2
 931 332 l 1
 931 30 l 1
 716 30 l 2
EndSplineSet
EndChar

StartChar: uniFE8E
Encoding: 65166 65166 150
Width: 572
GlyphClass: 2
Flags: HW
AnchorPoint: "Anchor-10" 250 1634 basechar 0
AnchorPoint: "Anchor-7" 323 -198 basechar 0
LayerCount: 2
Fore
SplineSet
433 982 m 0
 433 593 436 495 569 495 c 2
 577 495 l 2
 594 495 602 431 602 303 c 2
 602 171 l 2
 602 57 594 0 577 0 c 2
 503 0 l 2
 174 0 115 235 113 590 c 0
 110 916 88 1176 47 1371 c 1
 357 1571 l 2
 391 1592 405 1571 410 1516 c 0
 422 1392 433 1175 433 982 c 0
EndSplineSet
EndChar

StartChar: uniFEA2
Encoding: 65186 65186 170
Width: 1367
GlyphClass: 2
Flags: HW
AnchorPoint: "Anchor-10" 681 1364 basechar 0
AnchorPoint: "Anchor-7" 637 -850 basechar 0
LayerCount: 2
Fore
SplineSet
868 426 m 1
 595 323 350 180 350 -64 c 0
 350 -225 499 -302 791 -302 c 0
 956 -302 1098 -291 1217 -268 c 0
 1296 -255 1255 -334 1225 -387 c 2
 1107 -593 l 2
 1072 -654 1026 -686 967 -691 c 0
 912 -695 862 -697 817 -697 c 0
 354 -696 122 -533 122 -90 c 0
 122 282 333 540 664 649 c 1
 549 675 469 689 423 689 c 0
 359 689 292 648 223 565 c 1
 81 641 l 1
 136 840 232 1057 433 1057 c 0
 488 1057 684 1007 1018 908 c 0
 1085 888 1161 878 1248 878 c 0
 1279 878 1296 877 1291 858 c 2
 1209 546 l 1
 1156 538 1103 529 1052 513 c 1
 1098 501 1193 495 1339 495 c 2
 1372 495 l 2
 1389 495 1397 431 1397 303 c 2
 1397 171 l 2
 1397 57 1389 0 1372 0 c 2
 1348 0 l 2
 1061 0 901 142 868 426 c 1
EndSplineSet
EndChar

StartChar: uniFEA3
Encoding: 65187 65187 171
Width: 1365
GlyphClass: 2
Flags: HW
AnchorPoint: "Anchor-10" 512 1440 basechar 0
AnchorPoint: "Anchor-7" 583 -176 basechar 0
LayerCount: 2
Fore
SplineSet
198 631 m 1
 57 704 l 1
 121 913 219 1137 460 1137 c 0
 524 1137 629 1101 775 1029 c 0
 985 925 1097 890 1260 890 c 0
 1306 890 1313 887 1307 866 c 2
 1198 505 l 1
 1138 488 939 373 600 162 c 0
 427 54 235 0 26 0 c 2
 -5 0 l 2
 -42 0 -60 57 -60 171 c 2
 -60 303 l 2
 -60 431 -42 495 -5 495 c 2
 46 495 l 2
 394 495 588 540 764 639 c 1
 738 650 664 679 591 705 c 0
 523 729 457 749 430 749 c 0
 328 749 257 705 198 631 c 1
EndSplineSet
EndChar

StartChar: uniFEA4
Encoding: 65188 65188 172
Width: 1355
GlyphClass: 2
Flags: HW
AnchorPoint: "Anchor-10" 512 1424 basechar 0
AnchorPoint: "Anchor-7" 546 -173 basechar 0
LayerCount: 2
Fore
SplineSet
198 631 m 1
 57 704 l 1
 121 913 219 1137 460 1137 c 0
 524 1137 629 1101 775 1029 c 0
 985 925 1097 890 1260 890 c 0
 1306 890 1313 887 1307 866 c 2
 1218 565 l 1
 1148 564 1091 544 1047 506 c 1
 1049 497 1065 493 1095 493 c 2
 1360 495 l 2
 1377 495 1385 431 1385 303 c 2
 1385 171 l 2
 1385 57 1377 0 1360 0 c 2
 1297 0 l 2
 1030 0 874 121 827 363 c 1
 614 174 312 0 26 0 c 2
 -5 0 l 2
 -42 0 -60 57 -60 171 c 2
 -60 303 l 2
 -60 431 -42 495 -5 495 c 2
 46 495 l 2
 394 495 588 540 764 639 c 1
 738 650 664 679 591 705 c 0
 523 729 457 749 430 749 c 0
 328 749 257 705 198 631 c 1
EndSplineSet
EndChar

StartChar: uniFEAA
Encoding: 65194 65194 178
Width: 1129
GlyphClass: 2
Flags: HW
AnchorPoint: "Anchor-10" 646 1530 basechar 0
AnchorPoint: "Anchor-7" 483 -232 basechar 0
LayerCount: 2
Fore
SplineSet
815 204 m 1
 717 68 586 0 423 -0 c 0
 184 0 64 126 64 376 c 0
 64 456 79 542 109 633 c 1
 262 616 l 1
 262 568 l 2
 262 524 324 497 438 497 c 0
 523 497 671 522 671 579 c 0
 671 584 670 590 666 603 c 2
 526 1022 l 1
 705 1241 l 2
 728 1270 749 1275 762 1238 c 2
 949 674 l 2
 988 555 1046 495 1122 495 c 2
 1134 495 l 2
 1151 495 1159 431 1159 303 c 2
 1159 171 l 2
 1159 57 1151 0 1134 0 c 2
 1119 0 l 2
 984 0 883 68 815 204 c 1
EndSplineSet
PairPos2: "'kern' Horizontal Kerning lookup 0 subtable 4" uniFB90 dx=-120 dy=0 dh=-120 dv=0 dx=0 dy=0 dh=0 dv=0
PairPos2: "'kern' Horizontal Kerning lookup 0 subtable 4" uni06A9 dx=-120 dy=0 dh=-120 dv=0 dx=0 dy=0 dh=0 dv=0
PairPos2: "'kern' Horizontal Kerning lookup 0 subtable 4" uniFB94 dx=-120 dy=0 dh=-120 dv=0 dx=0 dy=0 dh=0 dv=0
PairPos2: "'kern' Horizontal Kerning lookup 0 subtable 4" uni06AF dx=-120 dy=0 dh=-120 dv=0 dx=0 dy=0 dh=0 dv=0
EndChar

StartChar: uniFEAE
Encoding: 65198 65198 182
Width: 857
GlyphClass: 2
Flags: HW
AnchorPoint: "Anchor-7" 371 -726 basechar 0
AnchorPoint: "Anchor-10" 504 1115 basechar 0
LayerCount: 2
Fore
SplineSet
714 31 m 1
 691 -185 615 -417 533 -483 c 0
 502 -508 446 -520 365 -520 c 2
 121 -520 l 2
 -108 -520 -88 -449 47 -362 c 0
 323 -184 497 62 497 124 c 0
 497 160 458 232 290 434 c 1
 508 758 l 1
 545 709 578 667 614 622 c 0
 685 533 766 495 854 495 c 2
 862 495 l 2
 879 495 887 431 887 303 c 2
 887 171 l 2
 887 57 879 0 862 0 c 2
 850 0 l 2
 788 0 743 10 714 31 c 1
EndSplineSet
PairPos2: "'kern' Horizontal Kerning lookup 0 subtable 3" uni06C0 dx=-128 dy=0 dh=-128 dv=0 dx=0 dy=0 dh=0 dv=0
PairPos2: "'kern' Horizontal Kerning lookup 0 subtable 3" uni0621 dx=-128 dy=0 dh=-128 dv=0 dx=0 dy=0 dh=0 dv=0
PairPos2: "'kern' Horizontal Kerning lookup 0 subtable 2" uni0648 dx=-43 dy=0 dh=-43 dv=0 dx=0 dy=0 dh=0 dv=0
PairPos2: "'kern' Horizontal Kerning lookup 0 subtable 0" uniFEF3 dx=20 dy=0 dh=20 dv=0 dx=0 dy=0 dh=0 dv=0
PairPos2: "'kern' Horizontal Kerning lookup 0 subtable 0" uniFB58 dx=20 dy=0 dh=20 dv=0 dx=0 dy=0 dh=0 dv=0
PairPos2: "'kern' Horizontal Kerning lookup 0 subtable 0" uniFBFE dx=20 dy=0 dh=20 dv=0 dx=0 dy=0 dh=0 dv=0
PairPos2: "'kern' Horizontal Kerning lookup 0 subtable 0" uni0644 dx=-43 dy=0 dh=-43 dv=0 dx=0 dy=0 dh=0 dv=0
PairPos2: "'kern' Horizontal Kerning lookup 0 subtable 0" uni0642 dx=-43 dy=0 dh=-43 dv=0 dx=0 dy=0 dh=0 dv=0
PairPos2: "'kern' Horizontal Kerning lookup 0 subtable 0" uni0632 dx=-43 dy=0 dh=-43 dv=0 dx=0 dy=0 dh=0 dv=0
PairPos2: "'kern' Horizontal Kerning lookup 0 subtable 0" uni0631 dx=-43 dy=0 dh=-43 dv=0 dx=0 dy=0 dh=0 dv=0
PairPos2: "'kern' Horizontal Kerning lookup 0 subtable 0" uniFB8A dx=-43 dy=0 dh=-43 dv=0 dx=0 dy=0 dh=0 dv=0
PairPos2: "'kern' Horizontal Kerning lookup 0 subtable 0" uni0698 dx=-43 dy=0 dh=-43 dv=0 dx=0 dy=0 dh=0 dv=0
PairPos2: "'kern' Horizontal Kerning lookup 0 subtable 0" uniFB7C dx=-128 dy=0 dh=-128 dv=0 dx=0 dy=0 dh=0 dv=0
PairPos2: "'kern' Horizontal Kerning lookup 0 subtable 0" uni06CC dx=-43 dy=0 dh=-43 dv=0 dx=0 dy=0 dh=0 dv=0
PairPos2: "'kern' Horizontal Kerning lookup 0 subtable 0" uniFEEB dx=-128 dy=0 dh=-128 dv=0 dx=0 dy=0 dh=0 dv=0
PairPos2: "'kern' Horizontal Kerning lookup 0 subtable 0" uniFEDF dx=-128 dy=0 dh=-128 dv=0 dx=0 dy=0 dh=0 dv=0
PairPos2: "'kern' Horizontal Kerning lookup 0 subtable 0" uniFB90 dx=-213 dy=0 dh=-213 dv=0 dx=0 dy=0 dh=0 dv=0
PairPos2: "'kern' Horizontal Kerning lookup 0 subtable 0" uni06A9 dx=-213 dy=0 dh=-213 dv=0 dx=0 dy=0 dh=0 dv=0
PairPos2: "'kern' Horizontal Kerning lookup 0 subtable 0" uni0649 dx=-43 dy=0 dh=-43 dv=0 dx=0 dy=0 dh=0 dv=0
PairPos2: "'kern' Horizontal Kerning lookup 0 subtable 0" uni0647 dx=-128 dy=0 dh=-128 dv=0 dx=0 dy=0 dh=0 dv=0
PairPos2: "'kern' Horizontal Kerning lookup 0 subtable 0" uniFEE7 dx=-128 dy=0 dh=-128 dv=0 dx=0 dy=0 dh=0 dv=0
PairPos2: "'kern' Horizontal Kerning lookup 0 subtable 0" uniFEE3 dx=-128 dy=0 dh=-128 dv=0 dx=0 dy=0 dh=0 dv=0
PairPos2: "'kern' Horizontal Kerning lookup 0 subtable 0" uni0645 dx=-128 dy=0 dh=-128 dv=0 dx=0 dy=0 dh=0 dv=0
PairPos2: "'kern' Horizontal Kerning lookup 0 subtable 0" uniFEDB dx=-213 dy=0 dh=-213 dv=0 dx=0 dy=0 dh=0 dv=0
PairPos2: "'kern' Horizontal Kerning lookup 0 subtable 0" uniFED7 dx=-128 dy=0 dh=-128 dv=0 dx=0 dy=0 dh=0 dv=0
PairPos2: "'kern' Horizontal Kerning lookup 0 subtable 0" uniFED3 dx=-128 dy=0 dh=-128 dv=0 dx=0 dy=0 dh=0 dv=0
PairPos2: "'kern' Horizontal Kerning lookup 0 subtable 0" uni0641 dx=-128 dy=0 dh=-128 dv=0 dx=0 dy=0 dh=0 dv=0
PairPos2: "'kern' Horizontal Kerning lookup 0 subtable 0" uniFECF dx=-128 dy=0 dh=-128 dv=0 dx=0 dy=0 dh=0 dv=0
PairPos2: "'kern' Horizontal Kerning lookup 0 subtable 0" uniFECB dx=-128 dy=0 dh=-128 dv=0 dx=0 dy=0 dh=0 dv=0
PairPos2: "'kern' Horizontal Kerning lookup 0 subtable 0" uniFEC7 dx=-128 dy=0 dh=-128 dv=0 dx=0 dy=0 dh=0 dv=0
PairPos2: "'kern' Horizontal Kerning lookup 0 subtable 0" uni0638 dx=-128 dy=0 dh=-128 dv=0 dx=0 dy=0 dh=0 dv=0
PairPos2: "'kern' Horizontal Kerning lookup 0 subtable 0" uniFEC3 dx=-128 dy=0 dh=-128 dv=0 dx=0 dy=0 dh=0 dv=0
PairPos2: "'kern' Horizontal Kerning lookup 0 subtable 0" uni0637 dx=-128 dy=0 dh=-128 dv=0 dx=0 dy=0 dh=0 dv=0
PairPos2: "'kern' Horizontal Kerning lookup 0 subtable 0" uniFEBF dx=-128 dy=0 dh=-128 dv=0 dx=0 dy=0 dh=0 dv=0
PairPos2: "'kern' Horizontal Kerning lookup 0 subtable 0" uni0636 dx=-128 dy=0 dh=-128 dv=0 dx=0 dy=0 dh=0 dv=0
PairPos2: "'kern' Horizontal Kerning lookup 0 subtable 0" uniFEBB dx=-128 dy=0 dh=-128 dv=0 dx=0 dy=0 dh=0 dv=0
PairPos2: "'kern' Horizontal Kerning lookup 0 subtable 0" uni0635 dx=-128 dy=0 dh=-128 dv=0 dx=0 dy=0 dh=0 dv=0
PairPos2: "'kern' Horizontal Kerning lookup 0 subtable 0" uniFEB7 dx=-128 dy=0 dh=-128 dv=0 dx=0 dy=0 dh=0 dv=0
PairPos2: "'kern' Horizontal Kerning lookup 0 subtable 0" uni0634 dx=-128 dy=0 dh=-128 dv=0 dx=0 dy=0 dh=0 dv=0
PairPos2: "'kern' Horizontal Kerning lookup 0 subtable 0" uniFEB3 dx=-128 dy=0 dh=-128 dv=0 dx=0 dy=0 dh=0 dv=0
PairPos2: "'kern' Horizontal Kerning lookup 0 subtable 0" uni0633 dx=-128 dy=0 dh=-128 dv=0 dx=0 dy=0 dh=0 dv=0
PairPos2: "'kern' Horizontal Kerning lookup 0 subtable 0" uni0630 dx=-128 dy=0 dh=-128 dv=0 dx=0 dy=0 dh=0 dv=0
PairPos2: "'kern' Horizontal Kerning lookup 0 subtable 0" uni062F dx=-128 dy=0 dh=-128 dv=0 dx=0 dy=0 dh=0 dv=0
PairPos2: "'kern' Horizontal Kerning lookup 0 subtable 0" uniFEA7 dx=-128 dy=0 dh=-128 dv=0 dx=0 dy=0 dh=0 dv=0
PairPos2: "'kern' Horizontal Kerning lookup 0 subtable 0" uniFEA3 dx=-128 dy=0 dh=-128 dv=0 dx=0 dy=0 dh=0 dv=0
PairPos2: "'kern' Horizontal Kerning lookup 0 subtable 0" uniFE9F dx=-128 dy=0 dh=-128 dv=0 dx=0 dy=0 dh=0 dv=0
PairPos2: "'kern' Horizontal Kerning lookup 0 subtable 0" uniFE9B dx=-128 dy=0 dh=-128 dv=0 dx=0 dy=0 dh=0 dv=0
PairPos2: "'kern' Horizontal Kerning lookup 0 subtable 0" uni062B dx=-128 dy=0 dh=-128 dv=0 dx=0 dy=0 dh=0 dv=0
PairPos2: "'kern' Horizontal Kerning lookup 0 subtable 0" uniFE97 dx=-128 dy=0 dh=-128 dv=0 dx=0 dy=0 dh=0 dv=0
PairPos2: "'kern' Horizontal Kerning lookup 0 subtable 0" uni062A dx=-128 dy=0 dh=-128 dv=0 dx=0 dy=0 dh=0 dv=0
PairPos2: "'kern' Horizontal Kerning lookup 0 subtable 0" uni0629 dx=-128 dy=0 dh=-128 dv=0 dx=0 dy=0 dh=0 dv=0
PairPos2: "'kern' Horizontal Kerning lookup 0 subtable 0" uni0628 dx=-128 dy=0 dh=-128 dv=0 dx=0 dy=0 dh=0 dv=0
PairPos2: "'kern' Horizontal Kerning lookup 0 subtable 0" uni0627 dx=-150 dy=0 dh=-150 dv=0 dx=0 dy=0 dh=0 dv=0
PairPos2: "'kern' Horizontal Kerning lookup 0 subtable 0" uni0622 dx=-150 dy=0 dh=-150 dv=0 dx=0 dy=0 dh=0 dv=0
PairPos2: "'kern' Horizontal Kerning lookup 0 subtable 0" uniFB94 dx=-235 dy=0 dh=-235 dv=0 dx=0 dy=0 dh=0 dv=0
PairPos2: "'kern' Horizontal Kerning lookup 0 subtable 0" uni06AF dx=-235 dy=0 dh=-235 dv=0 dx=0 dy=0 dh=0 dv=0
PairPos2: "'kern' Horizontal Kerning lookup 0 subtable 0" uniFB56 dx=-128 dy=0 dh=-128 dv=0 dx=0 dy=0 dh=0 dv=0
PairPos2: "'kern' Horizontal Kerning lookup 0 subtable 0" uni067E dx=-128 dy=0 dh=-128 dv=0 dx=0 dy=0 dh=0 dv=0
EndChar

StartChar: uniFEB2
Encoding: 65202 65202 186
Width: 2464
GlyphClass: 2
Flags: HW
AnchorPoint: "Anchor-10" 1692 1235 basechar 0
AnchorPoint: "Anchor-7" 596 -794 basechar 0
LayerCount: 2
Fore
SplineSet
1339 34 m 1
 1310 -342 1114 -566 719 -567 c 0
 313 -567 77 -359 77 31 c 0
 77 203 120 376 204 549 c 1
 381 494 l 1
 347 379 329 283 329 208 c 0
 329 -22 484 -96 725 -96 c 0
 1019 -96 1110 46 1110 99 c 0
 1110 133 1017 277 932 402 c 1
 1145 698 l 2
 1159 717 1173 717 1186 698 c 0
 1214 658 1227 640 1249 610 c 0
 1303 535 1372 497 1456 497 c 0
 1537 497 1582 540 1595 627 c 2
 1615 759 l 1
 1763 759 l 1
 1788 633 l 2
 1806 542 1854 496 1930 496 c 0
 2010 496 2056 549 2070 657 c 2
 2088 793 l 1
 2250 793 l 1
 2267 659 l 2
 2281 549 2339 495 2440 495 c 2
 2469 495 l 2
 2486 495 2495 431 2495 303 c 2
 2495 171 l 2
 2495 57 2486 0 2469 0 c 2
 2439 0 l 2
 2322 0 2231 55 2166 164 c 1
 2097 55 2018 0 1929 -0 c 0
 1835 0 1753 57 1682 171 c 1
 1611 57 1536 0 1456 0 c 0
 1422 0 1383 11 1339 34 c 1
EndSplineSet
EndChar

StartChar: uniFEB3
Encoding: 65203 65203 187
Width: 1535
GlyphClass: 2
Flags: HW
AnchorPoint: "Anchor-10" 836 1241 basechar 0
AnchorPoint: "Anchor-7" 703 -225 basechar 0
LayerCount: 2
Fore
SplineSet
1090 495 m 0
 1163 495 1209 518 1209 580 c 0
 1209 619 1187 669 1120 791 c 1
 1299 1013 l 2
 1317 1035 1334 1035 1349 1012 c 0
 1433 882 1474 743 1474 594 c 0
 1474 331 1341 0 1071 -0 c 0
 989 0 915 57 844 171 c 1
 773 57 698 0 619 0 c 0
 509 0 425 55 365 165 c 1
 275 55 170 0 50 0 c 2
 -5 0 l 2
 -42 0 -60 57 -60 171 c 2
 -60 303 l 2
 -60 431 -42 495 -5 495 c 2
 77 495 l 2
 194 495 259 540 272 628 c 2
 291 761 l 1
 440 761 l 1
 463 631 l 2
 478 542 531 497 619 497 c 0
 699 497 744 541 757 627 c 2
 776 759 l 1
 925 759 l 1
 950 633 l 2
 968 541 1015 495 1090 495 c 0
EndSplineSet
EndChar

StartChar: uniFEB4
Encoding: 65204 65204 188
Width: 1626
GlyphClass: 2
Flags: HW
AnchorPoint: "Anchor-7" 712 -233 basechar 0
AnchorPoint: "Anchor-10" 811 1275 basechar 0
LayerCount: 2
Fore
SplineSet
1091 -0 m 0
 997 0 915 57 844 171 c 1
 773 57 698 0 619 0 c 0
 509 0 425 55 365 165 c 1
 275 55 170 0 50 0 c 2
 -5 0 l 2
 -42 0 -60 57 -60 171 c 2
 -60 303 l 2
 -60 431 -42 495 -5 495 c 2
 77 495 l 2
 194 495 259 540 272 628 c 2
 291 761 l 1
 440 761 l 1
 463 631 l 2
 478 542 531 497 619 497 c 0
 699 497 744 541 757 627 c 2
 776 759 l 1
 925 759 l 1
 950 633 l 2
 968 542 1015 496 1091 496 c 0
 1171 496 1218 549 1232 657 c 2
 1250 793 l 1
 1412 793 l 1
 1429 659 l 2
 1443 549 1501 495 1602 495 c 2
 1631 495 l 2
 1648 495 1656 431 1656 303 c 2
 1656 171 l 2
 1656 57 1648 0 1631 0 c 2
 1601 0 l 2
 1484 0 1393 55 1328 164 c 1
 1259 55 1180 0 1091 -0 c 0
EndSplineSet
EndChar

StartChar: uniFEBA
Encoding: 65210 65210 194
Width: 2646
GlyphClass: 2
Flags: HW
AnchorPoint: "Anchor-7" 688 -774 basechar 0
AnchorPoint: "Anchor-10" 2119 1391 basechar 0
LayerCount: 2
Fore
SplineSet
1337 34 m 1
 1307 -354 1111 -566 699 -567 c 0
 309 -567 77 -349 77 31 c 0
 77 203 120 376 204 549 c 1
 381 494 l 1
 347 379 329 283 329 208 c 0
 329 -15 481 -96 705 -96 c 0
 1028 -96 1110 48 1110 99 c 0
 1110 137 1017 277 932 402 c 1
 1142 694 l 2
 1157 715 1173 714 1191 691 c 2
 1251 613 l 2
 1310 536 1374 497 1441 497 c 1
 1643 755 1904 1049 2212 1049 c 0
 2414 1049 2545 914 2545 699 c 0
 2545 615 2537 548 2521 495 c 1
 2651 495 l 2
 2668 495 2676 431 2676 303 c 2
 2676 171 l 2
 2676 57 2668 0 2651 0 c 2
 2623 0 l 2
 2508 0 2394 58 2283 173 c 1
 2144 56 1980 -2 1790 -2 c 2
 1587 -2 l 2
 1491 -2 1407 10 1337 34 c 1
1671 494 m 1
 1918 494 l 2
 2116 494 2297 509 2297 572 c 0
 2297 644 2221 689 2092 689 c 0
 1951 689 1792 597 1671 494 c 1
EndSplineSet
EndChar

StartChar: uniFEBB
Encoding: 65211 65211 195
Width: 1703
GlyphClass: 2
Flags: HW
AnchorPoint: "Anchor-10" 1133 1375 basechar 0
AnchorPoint: "Anchor-7" 632 -217 basechar 0
LayerCount: 2
Fore
SplineSet
1299 1049 m 0
 1499 1049 1632 914 1632 699 c 0
 1632 256 1284 0 877 -0 c 2
 675 -0 l 2
 547 0 426 61 314 183 c 1
 212 61 117 0 28 0 c 2
 -5 0 l 2
 -42 0 -60 57 -60 171 c 2
 -60 303 l 2
 -60 431 -42 495 -5 495 c 2
 29 495 l 2
 140 495 205 548 220 655 c 2
 240 793 l 1
 401 793 l 1
 422 658 l 2
 438 555 473 501 528 497 c 1
 725 757 1004 1049 1299 1049 c 0
758 494 m 1
 1006 494 l 2
 1201 494 1384 508 1384 570 c 0
 1384 646 1303 689 1180 689 c 0
 1039 689 879 597 758 494 c 1
EndSplineSet
EndChar

StartChar: uniFEBC
Encoding: 65212 65212 196
Width: 1720
GlyphClass: 2
Flags: HW
AnchorPoint: "Anchor-7" 682 -217 basechar 0
AnchorPoint: "Anchor-10" 1201 1386 basechar 0
LayerCount: 2
Fore
SplineSet
758 494 m 1
 1006 494 l 2
 1201 494 1384 508 1384 570 c 0
 1384 645 1303 689 1180 689 c 0
 1052 689 884 607 758 494 c 1
1299 1049 m 0
 1501 1049 1632 914 1632 699 c 0
 1632 617 1624 550 1608 495 c 1
 1725 495 l 2
 1742 495 1750 431 1750 303 c 2
 1750 171 l 2
 1750 57 1742 0 1725 0 c 2
 1697 0 l 2
 1590 0 1482 58 1371 173 c 1
 1234 58 1069 0 877 -0 c 2
 675 -0 l 2
 547 0 426 61 314 183 c 1
 210 61 115 0 28 0 c 2
 -5 0 l 2
 -42 0 -60 57 -60 171 c 2
 -60 303 l 2
 -60 431 -42 495 -5 495 c 2
 29 495 l 2
 140 495 204 548 220 655 c 2
 240 793 l 1
 401 793 l 1
 422 658 l 2
 438 555 473 501 528 497 c 1
 733 779 1029 1049 1299 1049 c 0
EndSplineSet
EndChar

StartChar: uniFEC2
Encoding: 65218 65218 202
Width: 1599
GlyphClass: 2
Flags: HW
AnchorPoint: "Anchor-7" 732 -191 basechar 0
AnchorPoint: "Anchor-10" 510 1658 basechar 0
LayerCount: 2
Fore
SplineSet
299 0 m 1
 56 361 l 2
 -46 512 51 495 94 495 c 2
 409 495 l 1
 409 496 409 499 409 500 c 1
 397 867 373 1157 338 1372 c 1
 651 1575 l 2
 681 1594 704 1591 704 1539 c 2
 704 811 l 1
 885 969 1047 1049 1191 1049 c 0
 1394 1049 1524 912 1524 696 c 0
 1524 625 1513 557 1492 495 c 1
 1604 495 l 2
 1621 495 1629 431 1629 303 c 2
 1629 171 l 2
 1629 57 1621 0 1604 0 c 2
 1575 0 l 2
 1469 0 1363 57 1256 169 c 1
 1116 60 938 -1 769 -1 c 2
 299 0 l 1
1276 571 m 0
 1276 600 1261 689 1071 689 c 0
 926 689 771 596 650 494 c 1
 897 494 l 2
 1214 494 1276 533 1276 571 c 0
EndSplineSet
EndChar

StartChar: uniFEC3
Encoding: 65219 65219 203
Width: 1322
GlyphClass: 2
Flags: HW
AnchorPoint: "Anchor-10" 192 1648 basechar 0
AnchorPoint: "Anchor-7" 493 -199 basechar 0
LayerCount: 2
Fore
SplineSet
1003 571 m 0
 1003 600 988 689 798 689 c 0
 653 689 498 596 377 494 c 1
 624 494 l 2
 941 494 1003 533 1003 571 c 0
-5 0 m 2
 -42 0 -60 57 -60 171 c 2
 -60 303 l 2
 -60 431 -42 495 -5 495 c 10
 132 495 l 1
 133 496 134 497 135 498 c 1
 124 865 100 1157 65 1372 c 1
 378 1575 l 2
 409 1596 431 1590 431 1539 c 2
 431 811 l 1
 612 969 774 1049 918 1049 c 0
 1121 1049 1251 912 1251 696 c 0
 1251 257 898 0 496 0 c 2
 -5 0 l 2
EndSplineSet
EndChar

StartChar: uniFEC4
Encoding: 65220 65220 204
Width: 1328
GlyphClass: 2
Flags: HW
AnchorPoint: "Anchor-7" 507 -195 basechar 0
AnchorPoint: "Anchor-10" 196 1643 basechar 0
LayerCount: 2
Fore
SplineSet
-5 0 m 2
 -42 0 -60 57 -60 171 c 2
 -60 303 l 2
 -60 431 -42 495 -5 495 c 2
 132 495 l 2
 133 496 134 497 135 498 c 0
 124 865 100 1157 65 1372 c 1
 378 1575 l 2
 408 1594 431 1591 431 1539 c 2
 431 811 l 1
 612 969 774 1049 918 1049 c 0
 1121 1049 1251 912 1251 696 c 0
 1251 624 1239 557 1219 495 c 1
 1333 495 l 2
 1350 495 1358 431 1358 303 c 2
 1358 171 l 2
 1358 57 1350 0 1333 0 c 2
 1304 0 l 2
 1197 0 1090 57 983 171 c 1
 838 60 656 0 496 0 c 2
 -5 0 l 2
1003 571 m 0
 1003 600 988 689 798 689 c 0
 653 689 498 596 377 494 c 1
 624 494 l 2
 941 494 1003 533 1003 571 c 0
EndSplineSet
EndChar

StartChar: uniFECA
Encoding: 65226 65226 210
Width: 1314
GlyphClass: 2
Flags: HW
AnchorPoint: "Anchor-10" 705 1347 basechar 0
AnchorPoint: "Anchor-7" 619 -812 basechar 0
LayerCount: 2
Fore
SplineSet
736 1029 m 0
 986 1029 1112 962 1112 828 c 0
 1112 722 1067 623 976 528 c 1
 1006 506 1108 495 1280 495 c 2
 1319 495 l 2
 1336 495 1344 431 1344 303 c 2
 1344 171 l 2
 1344 57 1336 0 1319 0 c 2
 1291 0 l 2
 1021 0 838 107 741 322 c 1
 457 220 315 89 315 -72 c 0
 315 -227 457 -302 731 -302 c 0
 889 -302 1028 -291 1147 -268 c 0
 1227 -255 1184 -334 1155 -387 c 2
 1037 -594 l 2
 1001 -656 950 -680 882 -690 c 0
 841 -696 794 -697 740 -697 c 0
 320 -697 86 -514 86 -111 c 0
 86 235 262 491 615 659 c 1
 563 678 462 697 311 717 c 1
 311 940 l 1
 408 999 549 1029 736 1029 c 0
EndSplineSet
EndChar

StartChar: uniFECB
Encoding: 65227 65227 211
Width: 1026
GlyphClass: 2
Flags: HW
AnchorPoint: "Anchor-10" 510 1486 basechar 0
AnchorPoint: "Anchor-7" 508 -201 basechar 0
LayerCount: 2
Fore
SplineSet
85 710 m 0
 85 888 248 1170 516 1170 c 0
 652 1170 769 1115 865 1004 c 1
 824 783 l 1
 747 824 667 844 585 844 c 0
 405 844 306 723 306 696 c 0
 306 648 459 536 526 536 c 1
 893 619 l 2
 944 631 981 616 968 564 c 2
 880 193 l 1
 552 90 265 0 75 0 c 2
 -5 0 l 2
 -42 0 -60 57 -60 171 c 2
 -60 303 l 2
 -60 431 -42 495 -5 495 c 2
 152 495 l 1
 108 563 85 634 85 710 c 0
EndSplineSet
EndChar

StartChar: uniFECC
Encoding: 65228 65228 212
Width: 1029
GlyphClass: 2
Flags: HW
AnchorPoint: "Anchor-10" 521 1285 basechar 0
AnchorPoint: "Anchor-7" 500 -201 basechar 0
LayerCount: 2
Fore
SplineSet
544 1026 m 0
 795 1026 921 963 921 834 c 0
 921 766 867 671 759 552 c 1
 822 514 901 495 994 495 c 2
 1034 495 l 2
 1051 495 1059 431 1059 303 c 2
 1059 171 l 2
 1059 57 1051 0 1034 0 c 2
 991 0 l 2
 812 0 668 67 558 201 c 1
 419 67 261 0 86 0 c 2
 -5 0 l 2
 -42 0 -60 57 -60 171 c 2
 -60 303 l 2
 -60 431 -42 495 -5 495 c 2
 84 495 l 2
 269 495 396 514 467 553 c 1
 410 651 294 705 120 714 c 1
 120 937 l 1
 217 996 359 1026 544 1026 c 0
EndSplineSet
EndChar

StartChar: uniFEDA
Encoding: 65242 65242 226
Width: 1950
GlyphClass: 2
Flags: HW
AnchorPoint: "Anchor-10" 922 1591 basechar 0
AnchorPoint: "Anchor-7" 889 -199 basechar 0
LayerCount: 2
Fore
SplineSet
1186 928 m 0
 1186 779 1054 685 888 685 c 0
 814 685 728 702 629 733 c 1
 649 937 l 1
 748 902 828 884 891 884 c 0
 949 884 1031 891 1037 933 c 1
 1033 947 996 961 929 976 c 0
 797 1005 732 1080 732 1203 c 0
 732 1352 848 1436 1077 1466 c 0
 1150 1475 1177 1459 1153 1390 c 2
 1110 1267 l 1
 951 1252 872 1227 872 1195 c 0
 872 1182 903 1170 964 1160 c 0
 1106 1135 1186 1080 1186 928 c 0
1505 688 m 0
 1505 859 1478 1117 1441 1371 c 1
 1774 1573 l 2
 1800 1588 1812 1574 1812 1531 c 2
 1812 741 l 2
 1812 577 1853 495 1937 495 c 2
 1955 495 l 2
 1972 495 1980 431 1980 303 c 2
 1980 171 l 2
 1980 57 1972 0 1955 0 c 2
 1927 0 l 2
 1761 0 1651 54 1596 162 c 1
 1467 54 1219 0 852 0 c 0
 397 0 78 120 78 539 c 0
 78 694 116 846 191 994 c 1
 346 938 l 1
 326 866 316 805 316 756 c 0
 316 550 554 491 882 491 c 0
 1286 491 1428 531 1478 588 c 0
 1504 618 1505 652 1505 688 c 0
EndSplineSet
EndChar

StartChar: uniFEDB
Encoding: 65243 65243 227
Width: 1030
GlyphClass: 2
Flags: HW
AnchorPoint: "Anchor-10" 244 1603 basechar 0
AnchorPoint: "Anchor-7" 335 -252 basechar 0
LayerCount: 2
Fore
SplineSet
-5 0 m 2
 -42 0 -60 57 -60 171 c 2
 -60 303 l 2
 -60 431 -42 495 -5 495 c 2
 77 495 l 2
 278 495 442 532 442 605 c 0
 442 674 236 837 8 1005 c 1
 84 1348 l 1
 920 1618 l 1
 949 1629 965 1619 961 1590 c 2
 918 1275 l 1
 418 1115 l 1
 642 933 754 745 754 545 c 0
 754 181 529 0 79 0 c 2
 -5 0 l 2
EndSplineSet
EndChar

StartChar: uniFEDC
Encoding: 65244 65244 228
Width: 1211
GlyphClass: 2
Flags: HW
AnchorPoint: "Anchor-10" 241 1592 basechar 0
AnchorPoint: "Anchor-7" 405 -187 basechar 0
LayerCount: 2
Fore
SplineSet
8 1005 m 1
 84 1348 l 1
 920 1618 l 2
 949 1629 965 1619 961 1590 c 2
 918 1275 l 1
 418 1115 l 1
 471 1068 617 932 857 705 c 0
 1006 565 1119 495 1197 495 c 2
 1216 495 l 2
 1233 495 1241 431 1241 303 c 2
 1241 171 l 2
 1241 57 1233 0 1216 0 c 2
 1196 0 l 2
 1017 0 846 96 684 288 c 1
 596 96 399 0 94 0 c 2
 -5 0 l 2
 -42 0 -60 57 -60 171 c 2
 -60 303 l 2
 -60 431 -42 495 -5 495 c 2
 97 495 l 2
 303 495 442 535 442 605 c 0
 442 673 236 837 8 1005 c 1
EndSplineSet
EndChar

StartChar: uniFEDE
Encoding: 65246 65246 230
Width: 1470
GlyphClass: 2
Flags: HW
AnchorPoint: "Anchor-10" 572 1113 basechar 0
AnchorPoint: "Anchor-7" 629 -771 basechar 0
LayerCount: 2
Fore
SplineSet
701 -567 m 0
 318 -567 77 -336 77 31 c 0
 77 217 120 389 204 549 c 1
 381 494 l 1
 347 379 329 283 329 208 c 0
 329 -8 475 -96 708 -96 c 0
 880 -96 1047 -21 1047 159 c 0
 1047 367 988 900 935 1371 c 1
 1234 1553 l 1
 1271 1574 1298 1570 1300 1513 c 2
 1333 664 l 2
 1338 551 1375 495 1443 495 c 2
 1475 495 l 2
 1492 495 1500 431 1500 303 c 2
 1500 171 l 2
 1500 57 1492 0 1475 0 c 2
 1443 0 l 2
 1395 0 1353 14 1318 41 c 1
 1289 -338 1095 -567 701 -567 c 0
EndSplineSet
EndChar

StartChar: uniFEDF
Encoding: 65247 65247 231
Width: 636
GlyphClass: 2
Flags: HW
AnchorPoint: "Anchor-10" 249 1618 basechar 0
AnchorPoint: "Anchor-7" 183 -220 basechar 0
LayerCount: 2
Fore
SplineSet
-5 495 m 2
 17 495 l 2
 134 495 192 526 192 588 c 0
 192 754 158 1014 107 1373 c 1
 419 1566 l 2
 450 1584 472 1582 475 1533 c 0
 494 1207 517 771 517 553 c 0
 517 202 372 0 31 0 c 2
 -5 0 l 2
 -42 0 -60 57 -60 171 c 2
 -60 303 l 2
 -60 431 -42 495 -5 495 c 2
EndSplineSet
EndChar

StartChar: uniFEE0
Encoding: 65248 65248 232
Width: 651
GlyphClass: 2
Flags: HW
AnchorPoint: "Anchor-10" 288 1628 basechar 0
AnchorPoint: "Anchor-7" 284 -217 basechar 0
LayerCount: 2
Fore
SplineSet
-5 495 m 2
 58 495 l 2
 152 495 199 559 199 685 c 0
 199 887 175 1107 142 1368 c 1
 464 1570 l 2
 496 1591 517 1583 517 1530 c 2
 517 727 l 2
 517 572 553 495 626 495 c 2
 656 495 l 2
 673 495 681 431 681 303 c 2
 681 171 l 2
 681 57 673 0 656 0 c 2
 615 0 l 2
 489 0 393 57 327 170 c 1
 243 57 154 0 57 0 c 2
 -5 0 l 2
 -42 0 -60 57 -60 171 c 2
 -60 303 l 2
 -60 431 -42 495 -5 495 c 2
EndSplineSet
EndChar

StartChar: uniFEE2
Encoding: 65250 65250 234
Width: 1335
GlyphClass: 2
Flags: HW
AnchorPoint: "Anchor-10" 644 1202 basechar 0
AnchorPoint: "Anchor-7" 272 -792 basechar 0
LayerCount: 2
Fore
SplineSet
868 174 m 0
 941 174 978 204 978 262 c 0
 978 310 899 384 742 484 c 1
 740 449 740 416 740 387 c 0
 740 263 749 174 868 174 c 0
1322 495 m 2
 1340 495 l 2
 1357 495 1365 431 1365 303 c 2
 1365 171 l 2
 1365 57 1357 0 1340 0 c 2
 1326 0 l 2
 1275 0 1220 23 1162 68 c 1
 1099 -113 996 -203 852 -203 c 0
 597 -203 519 -21 519 280 c 0
 519 312 519 346 521 383 c 1
 457 360 403 317 360 252 c 1
 375 -279 l 2
 377 -345 331 -428 239 -529 c 0
 113 -668 101 -640 95 -543 c 0
 83 -345 76 -100 76 102 c 0
 76 419 176 725 554 777 c 1
 574 869 606 992 696 926 c 2
 1203 557 l 2
 1260 516 1299 495 1322 495 c 2
EndSplineSet
EndChar

StartChar: uniFEE3
Encoding: 65251 65251 235
Width: 1045
GlyphClass: 2
Flags: HW
AnchorPoint: "Anchor-10" 544 1199 basechar 0
AnchorPoint: "Anchor-7" 529 -259 basechar 0
LayerCount: 2
Fore
SplineSet
-5 0 m 2
 -42 0 -60 57 -60 171 c 2
 -60 303 l 2
 -60 431 -42 495 -5 495 c 2
 31 495 l 2
 114 495 188 539 252 627 c 0
 362 778 487 949 627 949 c 0
 841 949 982 668 982 411 c 0
 982 105 748 -16 667 -16 c 0
 575 -16 453 49 302 179 c 1
 201 60 102 0 7 0 c 2
 -5 0 l 2
707 421 m 0
 739 421 755 440 755 479 c 0
 755 555 678 664 619 664 c 0
 588 664 548 628 498 557 c 1
 588 466 657 421 707 421 c 0
EndSplineSet
EndChar

StartChar: uniFEE4
Encoding: 65252 65252 236
Width: 1145
GlyphClass: 2
Flags: HW
AnchorPoint: "Anchor-10" 551 1181 basechar 0
AnchorPoint: "Anchor-7" 513 -270 basechar 0
LayerCount: 2
Fore
SplineSet
478 500 m 1
 568 409 637 363 687 363 c 0
 719 363 735 382 735 421 c 0
 735 497 657 606 598 606 c 0
 567 606 528 571 478 500 c 1
-5 495 m 2
 31 495 l 2
 127 495 197 525 241 586 c 0
 342 724 484 887 620 887 c 0
 754 887 866 740 949 592 c 0
 986 527 1047 495 1132 495 c 2
 1150 495 l 2
 1167 495 1175 431 1175 303 c 2
 1175 171 l 2
 1175 57 1167 0 1150 0 c 2
 1126 0 l 2
 1060 0 982 31 895 92 c 1
 846 20 758 -83 643 -83 c 0
 551 -83 433 -17 289 115 c 1
 215 38 125 0 17 0 c 2
 -5 0 l 2
 -42 0 -60 57 -60 171 c 2
 -60 303 l 2
 -60 431 -42 495 -5 495 c 2
EndSplineSet
EndChar

StartChar: uniFEEA
Encoding: 65258 65258 242
Width: 1041
GlyphClass: 2
Flags: HW
AnchorPoint: "Anchor-10" 645 1496 basechar 0
AnchorPoint: "Anchor-7" 475 -208 basechar 0
LayerCount: 2
Fore
SplineSet
562 598 m 0
 582 598 603 598 625 599 c 1
 580 813 l 1
 430 763 287 704 287 656 c 0
 287 608 436 599 562 598 c 0
1046 0 m 2
 1027 0 l 2
 860 0 744 78 679 233 c 1
 531 105 l 1
 382 106 179 136 125 200 c 0
 97 233 80 348 80 530 c 0
 80 760 104 857 532 1067 c 1
 515 1146 l 1
 683 1309 l 2
 725 1348 749 1345 761 1274 c 2
 868 642 l 2
 884 544 933 495 1017 495 c 2
 1046 495 l 2
 1063 495 1071 431 1071 303 c 2
 1071 171 l 2
 1071 57 1063 0 1046 0 c 2
EndSplineSet
EndChar

StartChar: uniFEEB
Encoding: 65259 65259 243
Width: 1262
GlyphClass: 2
Flags: HW
AnchorPoint: "Anchor-10" 522 1593 basechar 0
AnchorPoint: "Anchor-7" 574 -213 basechar 0
LayerCount: 2
Fore
SplineSet
588 795 m 0
 588 850 528 889 465 889 c 0
 412 889 325 822 325 757 c 0
 325 705 416 653 510 625 c 1
 551 648 588 730 588 795 c 0
764 745 m 1
 753 661 726 596 683 549 c 1
 779 508 853 483 904 474 c 1
 921 498 930 522 930 548 c 0
 930 633 853 695 764 745 c 1
927 110 m 0
 807 110 659 146 486 210 c 1
 343 70 197 0 48 0 c 2
 -5 0 l 2
 -42 0 -60 57 -60 171 c 2
 -60 303 l 2
 -60 431 -42 495 -5 495 c 0
 49 495 101 496 151 498 c 1
 114 540 96 591 96 652 c 0
 96 823 203 976 301 1036 c 1
 179 1098 l 1
 283 1419 l 1
 694 1202 l 2
 1022 1029 1185 825 1185 591 c 0
 1185 425 1054 110 927 110 c 0
EndSplineSet
EndChar

StartChar: uniFEEC
Encoding: 65260 65260 244
Width: 968
GlyphClass: 2
Flags: HW
AnchorPoint: "Anchor-7" 373 -613 basechar 0
AnchorPoint: "Anchor-10" 456 1372 basechar 0
LayerCount: 2
Fore
SplineSet
306 499 m 1
 515 513 619 543 619 592 c 0
 619 638 527 722 450 775 c 1
 391 692 343 600 306 499 c 1
781 691 m 0
 781 363 573 110 335 6 c 1
 392 -75 455 -142 526 -194 c 1
 536 91 766 495 966 495 c 2
 973 495 l 2
 990 495 998 431 998 303 c 2
 998 171 l 2
 998 57 990 0 973 0 c 2
 914 0 l 2
 809 0 757 -69 757 -208 c 0
 757 -271 768 -349 790 -441 c 1
 570 -590 l 1
 347 -448 195 -252 114 0 c 1
 -5 0 l 2
 -42 0 -60 57 -60 171 c 2
 -60 303 l 2
 -60 431 -41 495 -5 495 c 2
 105 493 l 1
 167 738 316 1112 477 1112 c 0
 614 1112 781 852 781 691 c 0
EndSplineSet
EndChar

StartChar: uniFEEE
Encoding: 65262 65262 246
Width: 867
GlyphClass: 2
Flags: HW
AnchorPoint: "Anchor-7" 321 -726 basechar 0
AnchorPoint: "Anchor-10" 370 1285 basechar 0
LayerCount: 2
Fore
SplineSet
428 485 m 1
 482 485 522 485 583 486 c 1
 551 569 507 642 408 643 c 0
 350 642 301 605 301 542 c 0
 301 489 358 485 428 485 c 1
115 -362 m 0
 304 -230 435 -110 507 -2 c 1
 238 0 77 89 77 367 c 0
 77 623 196 964 445 964 c 0
 649 964 769 747 783 495 c 1
 872 495 l 2
 889 495 897 431 897 303 c 2
 897 171 l 2
 897 57 889 0 872 0 c 2
 777 0 l 1
 758 -168 687 -418 601 -483 c 0
 569 -507 514 -520 433 -520 c 2
 189 -520 l 2
 -40 -520 -17 -454 115 -362 c 0
EndSplineSet
EndChar

StartChar: uniFEF0
Encoding: 65264 65264 248
Width: 1489
GlyphClass: 2
Flags: HW
AnchorPoint: "Anchor-10" 726 989 basechar 0
AnchorPoint: "Anchor-7" 658 -801 basechar 0
LayerCount: 2
Fore
SplineSet
743 -113 m 0
 1037 -113 1151 -21 1151 -5 c 0
 1151 14 999 33 890 46 c 0
 834 53 806 73 818 116 c 2
 923 495 l 1
 1494 495 l 2
 1511 495 1519 431 1519 303 c 2
 1519 171 l 2
 1519 57 1511 0 1494 0 c 2
 1380 0 l 1
 1391 -22 1396 -51 1396 -87 c 0
 1396 -394 1047 -567 711 -567 c 0
 309 -567 77 -358 77 31 c 0
 77 203 120 376 204 549 c 1
 381 494 l 1
 347 379 329 283 329 208 c 0
 329 -28 506 -113 743 -113 c 0
EndSplineSet
EndChar

StartChar: uniFEFB
Encoding: 65275 65275 259
Width: 1287
GlyphClass: 3
Flags: HW
AnchorPoint: "Anchor-9" 204 1509 baselig 1
AnchorPoint: "Anchor-9" 901 1630 baselig 0
AnchorPoint: "Anchor-6" 411 -233 baselig 1
AnchorPoint: "Anchor-6" 976 -192 baselig 0
LayerCount: 2
Fore
SplineSet
420 387 m 1
 328 693 198 963 37 1180 c 1
 304 1394 l 2
 314 1402 322 1402 327 1393 c 0
 471 1156 601 854 717 490 c 1
 791 522 828 595 828 708 c 0
 828 870 785 1198 761 1378 c 1
 1080 1561 l 2
 1108 1576 1128 1574 1130 1533 c 0
 1141 1276 1153 941 1153 760 c 0
 1153 200 844 -53 283 -53 c 1
 40 279 l 2
 17 309 3 352 51 353 c 0
 183 357 302 363 420 387 c 1
EndSplineSet
LCarets2: 1 0
Ligature2: "'rlig' Required Ligatures in Arabic lookup 4 subtable" uniFEDF uniFE8E
EndChar

StartChar: uniFEFC
Encoding: 65276 65276 260
Width: 1281
GlyphClass: 3
Flags: HW
AnchorPoint: "Anchor-9" 901 1630 baselig 0
AnchorPoint: "Anchor-6" 976 -192 baselig 0
AnchorPoint: "Anchor-6" 411 -233 baselig 1
AnchorPoint: "Anchor-9" 204 1509 baselig 1
LayerCount: 2
Fore
SplineSet
717 490 m 1
 791 522 828 595 828 707 c 0
 828 840 800 1075 761 1378 c 1
 1085 1564 l 2
 1112 1579 1129 1570 1130 1530 c 2
 1152 809 l 2
 1158 597 1174 495 1257 495 c 2
 1286 495 l 2
 1303 495 1311 431 1311 303 c 2
 1311 171 l 2
 1311 57 1303 0 1286 0 c 2
 1257 0 l 2
 1109 0 1007 61 952 184 c 1
 810 27 587 -52 283 -53 c 1
 40 279 l 2
 18 310 3 352 51 353 c 4
 183 356 300 363 420 387 c 1
 328 693 198 963 37 1180 c 1
 304 1394 l 2
 314 1402 322 1402 327 1393 c 0
 471 1156 601 854 717 490 c 1
EndSplineSet
LCarets2: 1 0
Ligature2: "'rlig' Required Ligatures in Arabic lookup 4 subtable" uniFEE0 uniFE8E
EndChar

StartChar: arabic_dot
Encoding: 65536 -1 261
Width: 233
GlyphClass: 2
Flags: HW
LayerCount: 2
Fore
SplineSet
117 315 m 2
 304 128 l 2
 305 127 305 127 304 126 c 2
 117 -61 l 2
 116 -62 116 -62 115 -61 c 2
 -72 126 l 2
 -73 127 -73 127 -72 128 c 2
 115 315 l 2
 116 316 116 316 117 315 c 2
EndSplineSet
EndChar

StartChar: arabic_2dots
Encoding: 65537 -1 262
Width: 605
VWidth: 2009
GlyphClass: 2
Flags: HW
LayerCount: 2
Fore
SplineSet
483.360351562 295.469726562 m 6
 654.860351562 122.990234375 l 6
 655.83984375 122.009765625 655.83984375 122.009765625 654.860351562 121.030273438 c 6
 483.360351562 -50.4697265625 l 6
 482.379882812 -51.4501953125 482.379882812 -51.4501953125 481.400390625 -50.4697265625 c 6
 308.919921875 121.030273438 l 6
 307.940429688 122.009765625 307.940429688 122.009765625 308.919921875 122.990234375 c 6
 481.400390625 295.469726562 l 6
 482.379882812 296.450195312 482.379882812 296.450195312 483.360351562 295.469726562 c 6
129.580078125 295.469726562 m 2
 301.080078125 122.990234375 l 2
 302.059570312 122.009765625 302.059570312 122.009765625 301.080078125 121.030273438 c 2
 129.580078125 -50.4697265625 l 2
 128.599609375 -51.4501953125 128.599609375 -51.4501953125 127.620117188 -50.4697265625 c 2
 -44.8603515625 121.030273438 l 2
 -45.83984375 122.009765625 -45.83984375 122.009765625 -44.8603515625 122.990234375 c 2
 127.620117188 295.469726562 l 2
 128.599609375 296.450195312 128.599609375 296.450195312 129.580078125 295.469726562 c 2
EndSplineSet
EndChar

StartChar: arabic_3dots
Encoding: 65538 -1 263
Width: 578
VWidth: 1975
GlyphClass: 2
Flags: HW
LayerCount: 2
Fore
SplineSet
116.459960938 268.540039062 m 2
 281.580078125 104.379882812 l 2
 282.540039062 103.419921875 282.540039062 103.419921875 281.580078125 102.459960938 c 2
 116.459960938 -62.66015625 l 2
 115.5 -63.6201171875 115.5 -63.6201171875 114.540039062 -62.66015625 c 2
 -49.6201171875 102.459960938 l 2
 -50.580078125 103.419921875 -50.580078125 103.419921875 -49.6201171875 104.379882812 c 2
 114.540039062 268.540039062 l 2
 115.5 269.5 115.5 269.5 116.459960938 268.540039062 c 2
295.98046875 529.66015625 m 2
 461.099609375 365.5 l 2
 462.059570312 364.540039062 462.059570312 364.540039062 461.099609375 363.580078125 c 2
 295.98046875 198.459960938 l 2
 295.01953125 197.5 295.01953125 197.5 294.059570312 198.459960938 c 2
 129.900390625 363.580078125 l 2
 128.940429688 364.540039062 128.940429688 364.540039062 129.900390625 365.5 c 2
 294.059570312 529.66015625 l 2
 295.01953125 530.620117188 295.01953125 530.620117188 295.98046875 529.66015625 c 2
475.5 268.540039062 m 2
 640.620117188 104.379882812 l 2
 641.580078125 103.419921875 641.580078125 103.419921875 640.620117188 102.459960938 c 2
 475.5 -62.66015625 l 2
 474.540039062 -63.6201171875 474.540039062 -63.6201171875 473.580078125 -62.66015625 c 2
 309.419921875 102.459960938 l 2
 308.459960938 103.419921875 308.459960938 103.419921875 309.419921875 104.379882812 c 2
 473.580078125 268.540039062 l 2
 474.540039062 269.5 474.540039062 269.5 475.5 268.540039062 c 2
EndSplineSet
EndChar

StartChar: arabic_3dots_a
Encoding: 65539 -1 264
Width: 623
VWidth: 1966
GlyphClass: 2
Flags: HW
LayerCount: 2
Fore
SplineSet
318.98046875 39.5400390625 m 6
 484.099609375 -124.620117188 l 6
 485.059570312 -125.580078125 485.059570312 -125.580078125 484.099609375 -126.540039062 c 6
 318.98046875 -291.66015625 l 6
 318.01953125 -292.620117188 318.01953125 -292.620117188 317.059570312 -291.66015625 c 6
 152.900390625 -126.540039062 l 6
 151.940429688 -125.580078125 151.940429688 -125.580078125 152.900390625 -124.620117188 c 6
 317.059570312 39.5400390625 l 6
 318.01953125 40.5 318.01953125 40.5 318.98046875 39.5400390625 c 6
498.5 300.66015625 m 6
 663.620117188 136.5 l 6
 664.580078125 135.540039062 664.580078125 135.540039062 663.620117188 134.580078125 c 6
 498.5 -30.5400390625 l 6
 497.540039062 -31.5 497.540039062 -31.5 496.580078125 -30.5400390625 c 6
 332.419921875 134.580078125 l 6
 331.459960938 135.540039062 331.459960938 135.540039062 332.419921875 136.5 c 6
 496.580078125 300.66015625 l 6
 497.540039062 301.620117188 497.540039062 301.620117188 498.5 300.66015625 c 6
139.459960938 300.66015625 m 6
 304.580078125 136.5 l 6
 305.540039062 135.540039062 305.540039062 135.540039062 304.580078125 134.580078125 c 6
 139.459960938 -30.5400390625 l 6
 138.5 -31.5 138.5 -31.5 137.540039062 -30.5400390625 c 6
 -26.6201171875 134.580078125 l 6
 -27.580078125 135.540039062 -27.580078125 135.540039062 -26.6201171875 136.5 c 6
 137.540039062 300.66015625 l 6
 138.5 301.620117188 138.5 301.620117188 139.459960938 300.66015625 c 6
EndSplineSet
EndChar

StartChar: uni066E.fina
Encoding: 65540 -1 265
Width: 1943
GlyphClass: 2
Flags: HW
AnchorPoint: "Anchor-10" 1061 1822 basechar 0
AnchorPoint: "Anchor-7" 991 -347 basechar 0
LayerCount: 2
Fore
SplineSet
814 0 m 0
 388 0 78 136 78 539 c 0
 78 694 116 846 191 994 c 1
 346 938 l 1
 326 866 316 805 316 756 c 0
 316 552 550 491 864 491 c 0
 1285 491 1534 570 1599 765 c 1
 1743 734 l 1
 1737 709 1732 683 1732 653 c 0
 1732 548 1796 495 1923 495 c 2
 1948 495 l 2
 1965 495 1973 431 1973 303 c 2
 1973 171 l 2
 1973 57 1965 0 1948 0 c 2
 1931 0 l 2
 1732 0 1608 78 1559 235 c 1
 1398 78 1150 0 814 0 c 0
EndSplineSet
EndChar

StartChar: uni06A1.fina
Encoding: 65543 -1 266
Width: 1891
GlyphClass: 2
Flags: HW
AnchorPoint: "Anchor-10" 767 2002 basechar 0
AnchorPoint: "Anchor-7" 954 -432 basechar 0
LayerCount: 2
Fore
SplineSet
814 0 m 0
 387 0 78 136 78 541 c 0
 78 696 116 847 191 994 c 1
 346 938 l 1
 326 866 316 805 316 756 c 0
 316 554 544 491 839 491 c 0
 980 491 1109 502 1224 524 c 1
 1158 598 1124 676 1124 757 c 0
 1124 967 1265 1197 1482 1197 c 0
 1649 1197 1810 981 1810 773 c 0
 1810 683 1771 599 1694 517 c 1
 1756 503 1813 495 1865 495 c 2
 1896 495 l 2
 1913 495 1921 431 1921 303 c 2
 1921 171 l 2
 1921 57 1913 0 1896 0 c 2
 1856 0 l 2
 1735 0 1603 68 1459 203 c 1
 1275 68 1060 0 814 0 c 0
1461 835 m 0
 1408 835 1330 754 1330 700 c 0
 1330 639 1439 579 1467 579 c 0
 1513 579 1605 663 1605 711 c 0
 1605 759 1511 835 1461 835 c 0
EndSplineSet
EndChar

StartChar: uni06A1.init
Encoding: 65544 -1 267
Width: 842
GlyphClass: 2
Flags: HW
AnchorPoint: "Anchor-10" 487 2063 basechar 0
AnchorPoint: "Anchor-7" 435 -343 basechar 0
LayerCount: 2
Fore
SplineSet
-15 495 m 2
 169 495 l 2
 341 495 530 503 562 611 c 1
 496 601 437 596 386 596 c 0
 176 596 93 667 93 844 c 0
 93 1145 218 1360 424 1360 c 0
 681 1360 773 1007 773 683 c 0
 773 232 617 0 193 0 c 2
 -15 0 l 2
 -45 0 -60 57 -60 171 c 2
 -60 303 l 2
 -60 431 -45 495 -15 495 c 2
412 921 m 0
 459 921 525 925 560 931 c 1
 520 1022 468 1067 402 1067 c 0
 337 1067 288 1031 288 970 c 0
 288 925 340 921 412 921 c 0
EndSplineSet
EndChar

StartChar: uni06A1.medi
Encoding: 65545 -1 268
Width: 907
GlyphClass: 2
Flags: HW
AnchorPoint: "Anchor-10" 758 1723 basechar 0
AnchorPoint: "Anchor-7" 698 -336 basechar 0
LayerCount: 2
Fore
SplineSet
-5 495 m 2
 37 495 l 2
 99 495 168 505 240 524 c 1
 174 598 140 676 140 757 c 0
 140 967 281 1197 498 1197 c 0
 665 1197 826 981 826 773 c 0
 826 683 787 599 710 517 c 1
 768 503 828 495 887 495 c 2
 912 495 l 2
 929 495 937 431 937 303 c 2
 937 171 l 2
 937 57 929 0 912 0 c 2
 880 0 l 2
 752 0 617 67 475 203 c 1
 322 67 176 0 38 0 c 2
 -5 0 l 2
 -42 0 -60 57 -60 171 c 2
 -60 303 l 2
 -60 431 -42 495 -5 495 c 2
477 835 m 0
 424 835 346 754 346 700 c 0
 346 639 455 579 483 579 c 0
 528 579 621 663 621 708 c 0
 621 758 529 835 477 835 c 0
EndSplineSet
EndChar

StartChar: uni066F.fina
Encoding: 65546 -1 269
Width: 1453
GlyphClass: 2
Flags: HW
AnchorPoint: "Anchor-10" 481 784 basechar 0
AnchorPoint: "Anchor-7" 402 -854 basechar 0
LayerCount: 2
Fore
SplineSet
1015 490 m 0
 1069 490 1109 490 1170 491 c 1
 1139 572 1095 648 998 648 c 0
 938 648 888 612 888 547 c 0
 888 494 945 490 1015 490 c 0
666 367 m 0
 666 626 785 964 1033 964 c 0
 1226 964 1357 740 1365 495 c 1
 1458 495 l 2
 1475 495 1483 431 1483 303 c 2
 1483 171 l 2
 1483 57 1475 0 1458 0 c 2
 1366 0 l 1
 1349 -382 1100 -567 731 -567 c 0
 320 -567 78 -364 78 30 c 0
 78 202 120 375 204 549 c 1
 381 494 l 1
 347 379 329 284 329 208 c 0
 329 -30 491 -97 753 -97 c 0
 940 -97 1078 -65 1167 -0 c 1
 1068 0 l 2
 795 0 666 117 666 367 c 0
EndSplineSet
EndChar

StartChar: arabic_gaf_bar
Encoding: 65550 -1 270
Width: 788
GlyphClass: 2
Flags: HW
LayerCount: 2
Fore
SplineSet
782 2098 m 2
 753 1952 l 1
 -4 1703 l 1
 33 1873 l 1
 761 2116 l 2
 779 2122 786 2116 782 2098 c 2
EndSplineSet
EndChar

StartChar: guillemotleft
Encoding: 171 171 279
Width: 1377
Flags: HW
LayerCount: 2
Fore
SplineSet
358 -5 m 2
 167 258 72 420 72 480 c 0
 72 547 167 712 358 975 c 2
 377 1001 l 1
 715 1001 l 1
 619 862 l 2
 477 657 406 530 406 480 c 0
 406 436 477 312 619 108 c 2
 716 -31 l 1
 377 -31 l 1
 358 -5 l 2
918 -5 m 2
 728 258 633 417 633 470 c 0
 633 543 728 711 918 975 c 2
 937 1001 l 1
 1276 1001 l 1
 1179 862 l 2
 1037 657 966 531 966 484 c 0
 966 437 1037 312 1179 108 c 2
 1276 -31 l 1
 937 -31 l 1
 918 -5 l 2
EndSplineSet
EndChar

StartChar: guillemotright
Encoding: 187 187 280
Width: 1377
Flags: HW
LayerCount: 2
Fore
SplineSet
459 -5 m 2
 440 -31 l 1
 101 -31 l 1
 198 108 l 2
 340 312 411 437 411 484 c 0
 411 531 340 657 198 862 c 2
 101 1001 l 1
 440 1001 l 1
 459 975 l 2
 649 711 744 543 744 470 c 0
 744 417 649 258 459 -5 c 2
1019 -5 m 2
 1000 -31 l 1
 661 -31 l 1
 758 108 l 2
 900 312 971 436 971 480 c 0
 971 530 900 657 758 862 c 2
 662 1001 l 1
 1000 1001 l 1
 1019 975 l 2
 1210 712 1305 547 1305 480 c 0
 1305 420 1210 258 1019 -5 c 2
EndSplineSet
EndChar

StartChar: exclam
Encoding: 33 33 289
Width: 708
Flags: HW
LayerCount: 2
Fore
SplineSet
490 687 m 2
 483 628 462 599 427 599 c 2
 288 599 l 2
 255 599 235 629 228 688 c 2
 150 1307 l 2
 148 1325 147 1341 147 1357 c 0
 147 1480 215 1542 349 1542 c 2
 378 1542 l 2
 500 1542 561 1480 561 1357 c 0
 561 1342 560 1325 558 1308 c 2
 490 687 l 2
354 0 m 0
 226 0 121 106 121 234 c 0
 121 362 226 467 354 467 c 0
 482 467 588 362 588 234 c 0
 588 106 482 0 354 0 c 0
EndSplineSet
EndChar

StartChar: period
Encoding: 46 46 290
Width: 708
Flags: HW
LayerCount: 2
Fore
SplineSet
354 0 m 0
 226 0 120 106 120 234 c 0
 120 362 226 467 354 467 c 0
 482 467 588 362 588 234 c 0
 588 106 482 0 354 0 c 0
EndSplineSet
EndChar

StartChar: colon
Encoding: 58 58 291
Width: 708
Flags: HW
LayerCount: 2
Fore
SplineSet
354 723 m 0
 226 723 121 828 121 956 c 0
 121 1084 226 1190 354 1190 c 0
 482 1190 588 1084 588 956 c 0
 588 828 482 723 354 723 c 0
354 0 m 0
 226 0 121 106 121 234 c 0
 121 362 226 467 354 467 c 0
 482 467 588 362 588 234 c 0
 588 106 482 0 354 0 c 0
EndSplineSet
EndChar

StartChar: uniFDFC
Encoding: 65020 65020 292
Width: 2815
Flags: HW
LayerCount: 2
Fore
SplineSet
1624 233 m 1
 1794 62 l 1
 1624 -108 l 1
 1454 62 l 1
 1624 233 l 1
1954 233 m 1
 2124 62 l 1
 1954 -108 l 1
 1784 62 l 1
 1954 233 l 1
2444 793 m 1
 2579 643 2646 445 2646 199 c 0
 2646 -32 2562 -334 2468 -408 c 0
 2439 -432 2385 -443 2308 -443 c 0
 2232 -443 2155 -443 2076 -443 c 0
 1859 -443 1877 -376 2006 -293 c 0
 2268 -124 2433 109 2433 168 c 0
 2433 202 2385 274 2221 465 c 1
 2444 793 l 1
1297 913 m 1
 1297 1062 1286 1274 1267 1350 c 1
 1503 1530 l 2
 1531 1550 1552 1547 1557 1504 c 0
 1571 1375 1572 1176 1572 1021 c 0
 1572 839 1584 774 1731 774 c 2
 1786 774 l 2
 1860 774 1907 790 1907 850 c 0
 1907 882 1886 932 1841 1017 c 1
 2003 1203 l 2
 2024 1227 2046 1240 2061 1209 c 0
 2118 1097 2145 971 2145 827 c 0
 2145 556 2028 353 1789 353 c 2
 1689 353 l 2
 1376 353 1297 529 1297 913 c 1
1143 386 m 0
 1143 -19 971 -245 631 -245 c 1
 309 -244 120 -43 120 291 c 0
 120 427 153 566 219 710 c 1
 389 669 l 1
 363 584 350 511 350 448 c 0
 350 272 449 185 630 185 c 0
 797 185 881 252 881 391 c 0
 881 710 842 1036 799 1351 c 1
 1024 1520 l 2
 1057 1545 1082 1560 1086 1498 c 0
 1110 1128 1143 614 1143 386 c 0
EndSplineSet
EndChar

StartChar: uniFD3E
Encoding: 64830 64830 294
Width: 1506
Flags: HW
LayerCount: 2
Fore
SplineSet
730 691 m 0
 730 668 744 649 771 649 c 0
 799 649 813 668 813 692 c 0
 813 716 799 733 771 733 c 0
 744 733 730 715 730 691 c 0
748 218 m 0
 776 95 832 -22 915 -130 c 1
 869 -10 816 168 816 230 c 0
 816 252 825 272 842 289 c 2
 883 331 l 1
 901 348 922 357 946 357 c 2
 1105 357 l 1
 1105 1025 l 1
 946 1025 l 1
 909 1027 897 1038 883 1051 c 2
 839 1096 l 2
 822 1113 813 1133 813 1156 c 0
 813 1223 875 1444 929 1579 c 1
 830 1457 765 1314 736 1151 c 0
 733 1133 725 1118 712 1105 c 2
 658 1051 l 2
 641 1034 620 1025 596 1025 c 2
 436 1025 l 1
 436 866 l 2
 436 841 428 821 411 804 c 2
 298 691 l 1
 411 578 l 2
 428 561 436 540 436 516 c 2
 436 357 l 1
 596 357 l 1
 623 355 643 346 658 331 c 2
 723 266 l 2
 735 254 743 238 748 218 c 0
989 691 m 0
 989 569 892 473 771 473 c 0
 652 473 554 572 554 691 c 0
 554 802 652 909 771 909 c 0
 895 909 989 811 989 691 c 0
1289 1815 m 1
 1147 1686 1050 1482 999 1206 c 9
 1003 1201 l 25
 1193 1201 l 2
 1237 1201 1281 1165 1281 1113 c 2
 1281 269 l 2
 1281 235 1249 181 1193 181 c 2
 1007 181 l 25
 1003 176 l 17
 1055 -82 1147 -264 1277 -369 c 0
 1352 -429 1267 -494 1209 -526 c 1
 878 -428 670 -208 581 159 c 1
 559 181 l 1
 348 181 l 1
 303 182 260 221 260 269 c 2
 260 480 l 1
 111 629 l 2
 90 650 80 670 80 691 c 0
 80 712 90 732 111 753 c 2
 260 902 l 1
 260 1113 l 2
 260 1158 301 1201 348 1201 c 2
 559 1201 l 1
 569 1211 l 1
 651 1610 860 1859 1196 1957 c 0
 1286 1987 1303 1886 1289 1815 c 1
EndSplineSet
EndChar

StartChar: uniFD3F
Encoding: 64831 64831 295
Width: 1506
Flags: HW
LayerCount: 2
Fore
SplineSet
200 1815 m 1
 186 1886 203 1987 293 1957 c 0
 629 1859 838 1610 920 1211 c 1
 930 1201 l 1
 1141 1201 l 2
 1188 1201 1229 1158 1229 1113 c 2
 1229 902 l 1
 1378 753 l 2
 1399 732 1409 712 1409 691 c 0
 1409 670 1399 650 1378 629 c 2
 1229 480 l 1
 1229 269 l 2
 1229 221 1186 182 1141 181 c 1
 930 181 l 1
 908 159 l 1
 819 -208 611 -428 280 -526 c 1
 222 -494 137 -429 212 -369 c 0
 342 -264 434 -82 486 176 c 9
 482 181 l 25
 296 181 l 2
 240 181 208 235 208 269 c 2
 208 1113 l 2
 208 1165 252 1201 296 1201 c 2
 486 1201 l 25
 490 1206 l 17
 439 1482 342 1686 200 1815 c 1
500 690 m 0
 500 810 597 909 719 909 c 0
 838 909 935 802 935 691 c 0
 935 572 837 473 718 473 c 0
 597 473 500 568 500 690 c 0
741 218 m 0
 746 238 754 254 766 266 c 2
 831 331 l 2
 846 346 866 355 893 357 c 1
 1053 357 l 1
 1053 516 l 2
 1053 540 1061 561 1078 578 c 2
 1191 691 l 1
 1078 804 l 2
 1061 821 1053 841 1053 866 c 2
 1053 1025 l 1
 893 1025 l 2
 869 1025 848 1034 831 1051 c 2
 777 1105 l 2
 764 1118 756 1133 753 1151 c 0
 724 1314 659 1457 560 1579 c 1
 614 1444 676 1223 676 1156 c 0
 676 1133 667 1113 650 1096 c 2
 606 1051 l 2
 592 1038 580 1027 543 1025 c 1
 384 1025 l 1
 384 357 l 1
 543 357 l 2
 567 357 588 348 606 331 c 1
 647 289 l 2
 664 272 673 252 673 230 c 0
 673 168 620 -10 574 -130 c 1
 657 -22 713 95 741 218 c 0
760 691 m 0
 760 715 746 733 719 733 c 0
 691 733 677 716 677 692 c 0
 677 668 691 649 719 649 c 0
 746 649 760 668 760 691 c 0
EndSplineSet
EndChar

StartChar: NameMe.303
Encoding: 65562 -1 296
Width: 636
Flags: HW
AnchorPoint: "Anchor-10" 255 1396 basechar 0
AnchorPoint: "Anchor-7" 211 -229 basechar 0
LayerCount: 2
Fore
SplineSet
-5 495 m 2
 27 495 l 2
 155 495 193 536 193 640 c 0
 193 767 175 923 130 1285 c 1
 425 1485 l 2
 457 1507 474 1497 477 1447 c 0
 494 1148 517 722 517 550 c 0
 517 202 374 0 41 0 c 2
 -5 0 l 2
 -42 0 -60 57 -60 171 c 2
 -60 303 l 2
 -60 431 -42 495 -5 495 c 2
EndSplineSet
EndChar

StartChar: NameMe.304
Encoding: 65563 -1 297
Width: 631
Flags: HW
LayerCount: 2
Fore
SplineSet
-5 495 m 2
 49 495 l 2
 140 495 186 554 186 673 c 0
 186 805 170 943 149 1118 c 1
 456 1325 l 2
 481 1342 504 1345 504 1302 c 2
 504 727 l 2
 504 590 511 495 607 495 c 2
 636 495 l 2
 653 495 661 431 661 303 c 2
 661 171 l 2
 661 57 653 0 636 0 c 2
 591 0 l 2
 473 0 381 57 314 170 c 1
 231 57 142 0 49 0 c 2
 -5 0 l 2
 -42 0 -60 57 -60 171 c 2
 -60 303 l 2
 -60 431 -42 495 -5 495 c 2
EndSplineSet
EndChar

StartChar: NameMe.306
Encoding: 65566 -1 299
Width: 574
Flags: HW
LayerCount: 2
Fore
SplineSet
431 923 m 0
 431 534 448 495 569 495 c 2
 577 495 l 2
 594 495 602 431 602 303 c 2
 602 171 l 2
 602 57 594 0 577 0 c 2
 483 0 l 2
 174 0 116 235 113 590 c 0
 110 916 104 1055 57 1250 c 1
 367 1432 l 2
 401 1453 416 1432 420 1377 c 0
 428 1253 431 1116 431 923 c 0
EndSplineSet
EndChar

StartChar: uni06C1
Encoding: 1729 1729 300
Width: 1012
Flags: HW
AnchorPoint: "Anchor-7" 479 -200 basechar 0
AnchorPoint: "Anchor-10" 623 1189 basechar 0
LayerCount: 2
Fore
SplineSet
644 828 m 0
 818 828 885 678 885 543 c 0
 885 512 887 495 941 495 c 2
 1032 495 l 1
 1032 0 l 1
 923 0 l 2
 700 0 572 95 572 298 c 0
 572 388 542 376 516 321 c 0
 436 148 373 13 299 -144 c 1
 13 4 l 1
 100 315 312 828 644 828 c 0
EndSplineSet
EndChar

StartChar: NameMe.65567
Encoding: 65567 -1 304
Width: 678
Flags: HW
LayerCount: 2
Fore
SplineSet
91 6 m 1
 147 -21 199 -34 247 -34 c 0
 345 -34 414 -11 451 34 c 1
 419 46 382 59 347 71 c 0
 286 92 256 130 256 180 c 0
 256 256 354 473 545 473 c 0
 579 473 617 467 658 454 c 1
 654 410 644 354 627 286 c 1
 608 289 589 290 569 290 c 0
 511 290 465 269 431 229 c 1
 524 198 l 2
 578 180 604 141 604 81 c 0
 604 -123 443 -215 248 -215 c 0
 176 -215 104 -200 30 -170 c 1
 91 6 l 1
EndSplineSet
EndChar

StartChar: NameMe.65541
Encoding: 65541 -1 305
Width: 618
Flags: HW
AnchorPoint: "Anchor-10" 273 1303 basechar 0
AnchorPoint: "Anchor-7" 321 -229 basechar 0
LayerCount: 2
Fore
SplineSet
-5 0 m 2
 -42 0 -60 57 -60 171 c 2
 -60 303 l 2
 -60 431 -42 495 -5 495 c 2
 107 495 l 2
 194 495 289 516 289 575 c 0
 289 624 236 744 203 811 c 1
 382 1033 l 2
 400 1055 416 1055 431 1032 c 0
 515 902 557 757 557 594 c 0
 557 268 413 0 77 0 c 2
 -5 0 l 2
EndSplineSet
EndChar

StartChar: NameMe.65542
Encoding: 65542 -1 306
Width: 688
Flags: HW
AnchorPoint: "Anchor-10" 336 1190 basechar 0
AnchorPoint: "Anchor-7" 310 -188 basechar 0
LayerCount: 2
Fore
SplineSet
-5 0 m 2
 -42 0 -60 57 -60 171 c 2
 -60 303 l 2
 -60 431 -42 495 -5 495 c 2
 94 495 l 2
 207 495 272 548 287 655 c 2
 307 793 l 1
 468 793 l 1
 489 658 l 2
 506 549 569 495 675 495 c 2
 693 495 l 2
 710 495 718 431 718 303 c 2
 718 171 l 2
 718 57 710 0 693 0 c 2
 672 0 l 2
 539 0 441 57 375 172 c 1
 295 57 193 0 71 0 c 2
 -5 0 l 2
EndSplineSet
EndChar
